<svg version="1.1" id="Layer_1" xmlns="http://www.w3.org/2000/svg" x="0" y="0" viewBox="0 0 600 222.6" style="enable-background:new 0 0 600 222.6" xml:space="preserve">
    <style>
        .st0 {
            fill: #fff
        }

        .st1 {
            fill: #fafafa
        }

        .st3 {
            fill: #ff6c0e
        }

        .st4 {
            fill: #ff4713
        }

        .st5,
        .st6 {
            fill: none;
            stroke: #ff6a14;
            stroke-width: 63;
            stroke-miterlimit: 10
        }

        .st6 {
            stroke: #fff
        }
    </style>
    <switch>
        <g>
            <path d="M308.1 47.8c-13.8 0-26.1 6.7-33.5 18.5l-.3.5h-2.2l.6-16h-27.4v111.9h30.9V96.1c0-12.1 8.5-20.5 20.7-20.5 12.7 0 19.1 7.2 19.1 21.3v65.6h31v-75c0-24.9-14.5-39.7-38.9-39.7zm261 1.7v66.4c0 13.2-7.4 20.7-20.3 20.7-12.7 0-19.7-7.3-19.7-20.5V49.5h-30.9v66.7c0 29.2 19.9 48.1 50.6 48.1 31.1 0 51.2-18.9 51.2-48.1V49.5h-30.9zM196.2 70.8l-1.8-2.9c-8-12.6-21.3-19.9-36.6-19.9-24.4 0-49.6 22.2-49.6 59.2 0 28.1 19 58.4 49.6 58.4 15.4 0 28.7-7.2 36.6-19.9l1.8-2.9v20h29.1V50.9h-29.1v19.9zm-28.7 65.3c-15.2 0-26.1-12.3-26.1-29.2 0-16.7 11.2-29.2 26.1-29.2 14.8 0 25.5 12.3 25.5 29.2s-10.7 29.2-25.5 29.2z" />
            <path d="m73.4 163.2-40.8-54.5v54.5H0V0h32.5v102l40.8-51.4h38.4l-43.9 53.6 45.3 58.9H73.4zM477.7 191.8v-47c-20.5 27.6-53.3 45.5-90.3 45.5-3.3 0-6.5-.2-9.8-.4V223c3.2.2 6.5.3 9.8.3 34.1-.1 65.5-11.8 90.3-31.5z" />
            <path d="M482.6 49.3h-49.7c-4.5-1-9.1-1.5-13.8-1.5-34 0-58.7 24.7-58.7 58.7s24.7 58.7 58.7 58.7 58.7-24.7 58.7-58.7c0-9.7-1.9-18.7-5.8-26.8l-.7-1.4h11.2v-29zm-63.5 88.3c-7.2 0-14-2.9-19-8.1-5.5-5.7-8.4-13.7-8.4-23s2.9-17.2 8.4-23c5-5.3 11.8-8.1 19-8.1 4 0 8.1 1 11.8 2.8l.5.3c9.7 5.1 15.3 15.4 15.3 28.1 0 20.1-14.2 31-27.6 31z" />
            <path d="M446.2 99.7c-.1-.3-18.4-7-21.4-19.8-.7-3-2.2-15.9-2.6-18.7-.4-3-3.3-13.7-3.8-15.2 0-.6.7-2.2.8-2.7 1.1-3.6 6.9-4.8 9.5-11.1 3.7-8.9 4.8-28.6 3.6-31.4-6.6 2.7-11.3 5.7-15.1 9.1-5.6 4.9-10 17.6-10 17.6l-1.7-.9s-.4-9.2-3.9-14.8c-3.4-5.6-14-12.5-15.5-11.2-1.5 1.3-.9 16.7-.2 21.7.6 4.9 3.2 6.4 3.2 6.4s-12.2 1.9-16.7 8.6c-2.1 3-3 7.3-3 7.3l-20.8 14.8s-1.1 3.5.2 7.1c1.3 3.6 6 6.2 6 6.2l9.2.9s14.3.7 20.8.7c10 .1 7.1 14 7.2 15.9 0 0-.6 9.1-.6 11.4 0 .9 0 1.9.1 2.8 0 .3.2 2.4.3 3.1.2 8.8 3.1 16.3 8.4 21.8 4.9 5.1 11.3 7.9 18.2 8.1.6.3.7 0 1.1 0 7.2 0 14-3.3 19.1-8.5 5.5-5.7 8.4-13.7 8.4-23-.1-2-.5-4.2-.8-6.2z" style="fill:#ff6a14" />
        </g>
    </switch>
</svg>
