<svg xmlns="http://www.w3.org/2000/svg" width="144" height="28" fill="none">
    <mask id="a" width="28" height="28" x="0" y="0" maskUnits="userSpaceOnUse" style="mask-type:luminance">
        <path fill="#fff" d="M0 4.837C0 2.197 2.149.056 4.8.056h18.4c2.65 0 4.8 2.14 4.8 4.78v18.327c0 2.64-2.15 4.781-4.8 4.781H4.8c-2.651 0-4.8-2.14-4.8-4.78V4.836Z" />
    </mask>
    <g mask="url(#a)">
        <path fill="#171717" d="M4.8 1.251h18.4v-2.39H4.8v2.39Zm22 3.586v18.326h2.4V4.837h-2.4Zm-3.6 21.912H4.8v2.39h18.4v-2.39Zm-22-3.585V4.836h-2.4v18.326h2.4Zm3.6 3.585a3.593 3.593 0 0 1-3.6-3.585h-2.4c0 3.3 2.687 5.976 6 5.976v-2.39Zm22-3.585a3.593 3.593 0 0 1-3.6 3.585v2.39c3.315 0 6-2.675 6-5.976h-2.4ZM23.2 1.25c1.99 0 3.6 1.605 3.6 3.586h2.4c0-3.3-2.685-5.976-6-5.976v2.39ZM4.8-1.139c-3.313 0-6 2.675-6 5.976h2.4A3.593 3.593 0 0 1 4.8 1.25v-2.39Z" />
    </g>
    <path fill="#171717" fill-rule="evenodd" d="m15.729 20.027-.7.117a.576.576 0 0 0-.48.599l.042.799a.575.575 0 0 0 .574.546h5.82a.575.575 0 0 0 .575-.576v-.83a.576.576 0 0 0-.44-.56l-1.085-.262-.005-.005-.003-.003v-.001l-.007-.007h-.001l-.029-.03-.005-.005-.002-.002-.003-.003-.002-.002-.003-.002-.006-.006v-.001l-.003-.002v-.001l-.006-.006h-.001v-.002h-.002l-.004-.004v-.001h-.001l-.001-.002-.002-.001v-.001h-.001l-.001-.002-.002-.001v-.001h-.001l-.001-.002-.003-.003h-.001v-.001l-.002-.001-.009-.01-.004-.004-.001-.001-.04-.04-.003-.003-.003-.003-.006-.007h-.001l-.003-.003-.005-.005-.002-.002-.003-.003-.002-.002-.002-.002-.014-.014v-.001l-.002-.001-.003-.004h-.001l-.001-.001-.001-.001-.006-.006-.003-.003-.004-.005-.003-.002-.01-.01-.037-.038h-.001l-.006-.007-.001-.001-.007-.006v-.001l-.004-.003-.001-.002h-.002l-.02-.021v-.001l-.002-.001v-.001l-.003-.003-.001-.001-.007-.007-.007-.007-.002-.001-.006-.006a78.898 78.898 0 0 0-.578-.631 14.491 14.491 0 0 0-.76-.867l-4.281-4.796 5.37-5.1 1.268-.22a.576.576 0 0 0 .476-.597l-.043-.851a.575.575 0 0 0-.573-.548h-4.793a.575.575 0 0 0-.573.547l-.042.802a.576.576 0 0 0 .454.594l.656.14-4.636 4.815-.364.096V9.533c.017-.54.034-.95.05-1.237l.021-.163 1.21-.278a.577.577 0 0 0 .444-.593l-.042-.803a.575.575 0 0 0-.573-.547H7.077c-.3 0-.549.232-.573.531l-.063.805a.576.576 0 0 0 .446.607l1.197.272.002.18v.026c.017.298.026.72.026 1.27v.016c.017.53.026 1.18.026 1.956v4.876c0 1.14-.009 2.026-.026 2.659-.01.34-.02.592-.033.766l-1.168.269a.576.576 0 0 0-.444.607l.063.805c.024.3.273.53.572.53h5.212c.3 0 .549-.23.572-.53l.063-.805a.576.576 0 0 0-.443-.607l-1.155-.266a50.017 50.017 0 0 1-.046-.775 104.17 104.17 0 0 1-.026-2.653v-1.418h.114l3.815 4.356.005.005c.206.224.378.434.516.633Z" clip-rule="evenodd" />
    <path fill="#171717" d="M40 4.781c0-.215.041-.393.123-.533.091-.14.3-.211.63-.211h2.11c.238 0 .41.074.518.223.107.14.16.294.16.46v10.235L48.97 9.05c.107-.107.214-.19.32-.248a.896.896 0 0 1 .408-.087h2.825c.181 0 .317.038.407.112.09.075.136.174.136.298a.633.633 0 0 1-.037.223.861.861 0 0 1-.135.224l-5.54 5.819 6.576 8.163h-.025c.09.091.152.19.185.298a.773.773 0 0 1 .062.26c0 .142-.041.236-.124.286-.082.05-.205.075-.37.075h-3.146c-.238 0-.469-.174-.69-.521l-4.776-6.242-1.48 1.551v4.467a.949.949 0 0 1-.037.248.723.723 0 0 1-.124.236.58.58 0 0 1-.21.186.683.683 0 0 1-.333.075h-2.184a.587.587 0 0 1-.308-.075.762.762 0 0 1-.21-.186.761.761 0 0 1-.123-.223.742.742 0 0 1-.037-.199V4.781ZM56.398 9.471c0-.215.062-.393.186-.533.123-.149.304-.224.542-.224h2.049c.09 0 .18.021.271.063a.653.653 0 0 1 .26.16.874.874 0 0 1 .184.237c.05.09.074.19.074.297v14.256c0 .497-.259.745-.777.745h-2.048c-.494 0-.74-.248-.74-.745V9.471Zm0-5.484c0-.496.243-.744.728-.744H59.2c.23 0 .416.062.555.186.14.124.21.31.21.558v1.849c0 .19-.066.372-.197.546-.132.165-.317.248-.555.248h-2.073c-.494 0-.74-.265-.74-.794V3.987ZM63.965 9.446c0-.24.078-.421.234-.546a.864.864 0 0 1 .53-.186h1.568c.206 0 .362.062.469.186.106.125.189.278.246.46.058.182.099.38.124.595.025.207.053.397.086.57.181-.256.383-.504.605-.744.23-.248.49-.467.777-.657a3.93 3.93 0 0 1 .975-.46 4.041 4.041 0 0 1 1.234-.173c.41 0 .781.029 1.11.087.33.05.641.132.938.248.304.108.6.252.888.434.288.174.596.38.925.62.14.092.26.195.358.31.107.117.16.253.16.41a2.23 2.23 0 0 1-.036.211.667.667 0 0 1-.1.223l-1.01 1.613a.635.635 0 0 1-.235.187.603.603 0 0 1-.223.05.8.8 0 0 1-.382-.1c-.271-.149-.518-.29-.74-.422a5.498 5.498 0 0 0-.654-.335 3.156 3.156 0 0 0-.666-.223 2.988 2.988 0 0 0-.753-.087c-.732 0-1.353.236-1.863.707-.502.472-.84 1.12-1.012 1.948v9.355c0 .496-.255.744-.765.744H64.73c-.51 0-.765-.248-.765-.744V9.447ZM76.104 9.72l-.012-.05a1.9 1.9 0 0 0-.038-.124 7.142 7.142 0 0 1-.024-.162 1.056 1.056 0 0 1-.012-.148c0-.158.053-.282.16-.373.115-.099.284-.149.506-.149h2.22c.198 0 .358.05.482.15.123.099.222.24.296.421l.222.559.555 1.588c.214.587.432 1.195.654 1.823l.667 1.862.629 1.737.53 1.439c.157.413.28.732.37.955l.482-1.39a354.822 354.822 0 0 0 1.258-3.511l.654-1.848c.214-.604.415-1.179.605-1.725.197-.554.374-1.055.53-1.501.082-.199.181-.34.296-.422.124-.091.288-.137.494-.137h2.307c.255 0 .428.042.518.125a.4.4 0 0 1 .148.322c0 .066-.012.149-.037.248-.016.1-.032.174-.05.224l-5.872 14.342a1.844 1.844 0 0 1-.247.335c-.09.108-.263.162-.518.162h-1.135c-.296 0-.498-.05-.605-.15a1.123 1.123 0 0 1-.222-.347L76.104 9.72ZM108.373 23.74a.659.659 0 0 1-.333.595c-.099.05-.214.087-.345.112a3.036 3.036 0 0 1-.395.025h-1.543c-.263 0-.448-.07-.555-.211a1.496 1.496 0 0 1-.222-.534l-.074-1.054c-.288.29-.609.562-.962.819-.346.248-.72.467-1.123.657a6.488 6.488 0 0 1-1.283.422 6.015 6.015 0 0 1-1.395.161c-.74 0-1.456-.095-2.146-.285a8.658 8.658 0 0 1-1.925-.819 8.197 8.197 0 0 1-1.641-1.278 8.5 8.5 0 0 1-1.259-1.65 8.709 8.709 0 0 1-.814-1.948 8.242 8.242 0 0 1-.284-2.171c0-.753.095-1.477.284-2.171.197-.695.469-1.345.814-1.948a8.164 8.164 0 0 1 1.259-1.638 7.84 7.84 0 0 1 1.64-1.266 7.94 7.94 0 0 1 1.926-.818 7.733 7.733 0 0 1 2.146-.298c.527 0 1.029.058 1.506.173.477.108.921.265 1.332.472.42.198.806.442 1.16.732.354.281.674.591.962.93l.173-1.327c.041-.149.078-.269.111-.36a.867.867 0 0 1 .136-.236.404.404 0 0 1 .21-.111c.082-.025.185-.038.308-.038h1.234c.132 0 .263.013.395.038.131.025.251.066.357.124.108.05.19.124.247.223a.577.577 0 0 1 .099.348v14.33ZM95.541 16.58c0 .661.116 1.29.346 1.886.23.587.55 1.104.962 1.55a4.72 4.72 0 0 0 1.444 1.068c.56.256 1.168.384 1.826.384.666 0 1.287-.128 1.863-.384a4.836 4.836 0 0 0 1.517-1.067 5.03 5.03 0 0 0 1.012-1.551c.247-.596.37-1.225.37-1.886 0-.654-.123-1.274-.37-1.861a4.989 4.989 0 0 0-1.012-1.564 4.838 4.838 0 0 0-1.517-1.067 4.409 4.409 0 0 0-1.863-.397c-.658 0-1.267.133-1.826.397a4.722 4.722 0 0 0-1.444 1.067 4.883 4.883 0 0 0-.962 1.564 5.057 5.057 0 0 0-.346 1.861ZM111.607 9.447c0-.116.05-.24.148-.373.099-.132.194-.215.284-.248.066-.066.164-.099.296-.099.132-.008.255-.012.37-.012h1.246c.239 0 .416.078.531.235.115.157.193.331.235.521l.135 1.316a5.7 5.7 0 0 1 .691-.832c.28-.273.609-.517.987-.732a5.59 5.59 0 0 1 1.296-.52 6.239 6.239 0 0 1 1.641-.2c.97 0 1.834.178 2.591.534a5.44 5.44 0 0 1 1.912 1.44 6.215 6.215 0 0 1 1.172 2.158c.272.827.407 1.717.407 2.668v8.275c0 .298-.07.522-.209.67-.14.15-.342.224-.605.224h-1.875c-.329 0-.551-.062-.667-.186-.106-.125-.16-.344-.16-.658v-8.263c0-.439-.074-.865-.222-1.278a3.435 3.435 0 0 0-.654-1.13 3.071 3.071 0 0 0-1.049-.793c-.419-.199-.905-.298-1.456-.298-.378 0-.773.079-1.184.236a3.769 3.769 0 0 0-1.111.645 3.538 3.538 0 0 0-.838 1.03 2.807 2.807 0 0 0-.346 1.352v8.04c0 .157-.008.314-.025.471a1.3 1.3 0 0 1-.111.422.672.672 0 0 1-.222.298.618.618 0 0 1-.382.112h-2.036c-.272 0-.473-.062-.605-.186-.123-.133-.185-.319-.185-.559V9.447ZM127.799 16.618c0-.753.094-1.476.283-2.171a8.307 8.307 0 0 1 .827-1.96 7.92 7.92 0 0 1 1.271-1.638 7.845 7.845 0 0 1 1.641-1.266 7.93 7.93 0 0 1 1.925-.819 7.776 7.776 0 0 1 2.159-.298c.74 0 1.456.1 2.147.298.691.19 1.332.463 1.924.82a7.85 7.85 0 0 1 1.642 1.265 7.916 7.916 0 0 1 2.085 3.598c.197.695.296 1.418.296 2.17 0 .753-.099 1.477-.296 2.172a7.963 7.963 0 0 1-.815 1.948 8.384 8.384 0 0 1-1.27 1.638 8.186 8.186 0 0 1-1.642 1.278 8.32 8.32 0 0 1-1.924.819 8.059 8.059 0 0 1-2.147.285 8.1 8.1 0 0 1-2.159-.285 8.633 8.633 0 0 1-1.925-.82 8.39 8.39 0 0 1-2.912-2.915 8.36 8.36 0 0 1-.827-1.948 8.236 8.236 0 0 1-.283-2.171Zm3.479 0c0 .662.115 1.29.346 1.886.23.587.551 1.1.962 1.538.411.439.896.786 1.456 1.042a4.435 4.435 0 0 0 1.85.385c.65 0 1.251-.128 1.802-.385a4.48 4.48 0 0 0 1.444-1.042c.402-.438.715-.95.937-1.538a5.17 5.17 0 0 0 .346-1.886c0-.653-.115-1.278-.346-1.873a4.837 4.837 0 0 0-.937-1.564 4.465 4.465 0 0 0-1.444-1.08 4.005 4.005 0 0 0-1.802-.409 4.21 4.21 0 0 0-1.85.41 4.579 4.579 0 0 0-1.456 1.08 4.88 4.88 0 0 0-.962 1.563 5.134 5.134 0 0 0-.346 1.873Z" />
</svg>
