<svg viewBox="26 28.097 558.934 363.903" width="558.934" height="363.903" xmlns="http://www.w3.org/2000/svg">
    <g fill="#2c3357">
        <path d="M334.5 29.4c-17.8 2.8-36.7 11.2-51 22.8l-8.4 6.6-7.3-2.3C218.9 41 167.3 72.4 158.4 123c-7.5 42.8 18.9 85.1 60.6 97 14.7 4.2 34.8 3.8 49.7-1.1l6.3-2.1 8 6.5c19.6 15.7 42.9 23.9 68 24 26.4 0 48.5-7.6 69.2-24.2 16.8-13.3 28.1-29.8 35.2-51.1 4.5-13.4 6-25.3 5.3-40-2-38.7-24.4-73.6-58.7-91.4-21-10.9-44.3-14.8-67.5-11.2zm37.7 25.5c29.6 7.6 52.4 29.7 61.4 59.6 2.3 7.8 2.7 10.8 2.7 22.5.1 14.9-1.3 22.4-6.2 34-9.8 23.4-32 42.8-56.6 49.6-9.2 2.5-28.5 3-38.6.9-36.3-7.3-63.2-36.8-68-74.6l-1.2-8.9h-24l.7 7.7c1.5 16.5 6.1 31.9 13.2 44.5 1.9 3.3 3.4 6.1 3.4 6.3 0 .7-13 2.5-17.6 2.5-7.8 0-18.3-2.7-26.4-6.6-5.6-2.8-9.5-5.7-15.6-11.8-10.3-10.4-14.9-19.4-17.2-33.4-1.5-8.7-1.4-10.4 0-19 3.7-21.9 17.8-39.3 38.3-47.4 10.2-4 25.2-5 35.5-2.4 22.5 5.6 40.2 23.4 45.4 45.6.9 3.6 1.6 8.2 1.6 10.2v3.8h24v-5c0-7.3-2.7-19.3-6.2-27.7-4.1-10-9.8-18.6-17.5-26.5l-6.6-6.6 4.4-3.2c20.8-15 47.1-20.2 71.1-14.1zM400 333v38h13v-15.8c0-8.6.5-17.4 1-19.4 2.1-7.6 10.8-11.6 17.7-8.2 6.5 3.2 7.3 6.2 7.3 26.1V371h13v-18.8c0-19.7-.6-23.8-4.3-29.3-6.7-9.9-21.1-11.7-30.9-3.8l-3.8 3V295h-13v38zM49.5 315.2c-1.6.6-4.7 2.3-6.7 4l-3.8 2.9V316H26v55h13v-15.8c0-8.6.5-17.4 1-19.4 2.1-7.6 10.8-11.6 17.7-8.2 6.5 3.2 7.3 6.2 7.3 26.1V371h13.1l-.3-20.8c-.3-19.1-.5-21-2.5-24.8-5-9.4-15.8-13.7-25.8-10.2zM219.9 314.7c-4.9.8-13.3 6.6-16.6 11.6-4.3 6.4-5.6 11.7-5.1 19.7 1.2 16.1 12.4 26.4 28.8 26.4 8.7 0 14.6-2.2 19.8-7.5 5.7-5.7 5.7-6.2-.2-9.1l-5.3-2.6-2.1 2.8c-2.7 3.6-10 6.4-14.4 5.6-6.7-1.3-13.8-7.9-13.8-12.9 0-1.6 1.7-1.7 21.6-1.7h21.7l-.5-5.8c-1.7-18.5-15.6-29.3-33.9-26.5zm13.9 12.3c3.2 2 7.2 7.4 7.2 9.7 0 1-3.7 1.3-15.1 1.3h-15l.7-2.3c2.8-9.1 14.2-13.6 22.2-8.7zM283 315.6c-1.9.8-4.7 2.7-6.2 4.1l-2.8 2.7V316h-13v55h13v-16.8c0-14.3.3-17.3 2-20.9 3.6-8 13.5-9.6 18.4-3 1.9 2.6 2.1 4.4 2.4 21.8l.3 18.9h12.7l.4-18.3c.3-20 .9-22.2 6.9-25.3 3.6-1.8 6.3-1.8 10 .2 5.1 2.6 5.9 6.2 5.9 25.9V371h13.2l-.4-21.3c-.3-19.7-.5-21.5-2.6-25.4-1.2-2.4-4.1-5.5-6.4-7-7.8-5.2-22.7-2.9-27.4 4.2l-1.6 2.5-3.9-3.9c-5.6-5.9-13.7-7.6-20.9-4.5zM367 314.9c-8.7 2.7-13.2 8.1-13.3 16-.1 8.9 4.6 13.5 18.6 18.1 8 2.6 10.1 5.2 7.4 9.3-3.2 5-11.3 3.9-15.7-2.2l-2.3-3-4.8 2.5c-2.9 1.4-4.9 3.1-4.9 4.1 0 .9 2.1 3.7 4.8 6.3 3.9 3.9 5.7 5 10.4 5.9 6.3 1.4 11.5.7 17-2 5.6-2.8 8.2-7.2 8.6-14.7l.4-6.3-4.3-4.2c-3.1-2.9-6.5-4.9-11.4-6.6-3.9-1.3-8-3-9.2-3.8-4.7-2.9-1.6-9.3 4.5-9.3 2.3 0 4.1 1 6.7 3.5l3.5 3.5 3.7-1.9c7-3.7 6.9-3.5 2.3-8.5-5.8-6.3-14.6-8.9-22-6.7zM481.5 314.9c-6 1.5-10.6 4.4-15 9.3-19.2 21.4 1.3 54.6 29.3 47.4 7.9-2 13.4-5.7 17.2-11.4 4-6.1 5.3-11.3 4.8-19.3-.8-11.1-7.3-20.3-17.3-24.5-4.3-1.8-14.8-2.6-19-1.5zm14.5 13.3c12.2 6.2 12.1 24.3-.2 30.6-3.9 2-5.6 2.3-9.3 1.8-5.3-.8-11.1-5.3-13.1-10.3-3.4-8.1 0-18 7.6-22 5.4-2.9 9.4-2.9 15-.1zM550.8 315.2c-2 .5-5.5 2.5-7.7 4.5l-4.1 3.5V316h-13v76h13v-28.2l3.2 3.1c1.7 1.7 4.7 3.6 6.7 4.3 4.9 1.7 14.8 1.4 19.2-.4 18.1-7.8 22.7-33.8 8.4-48.4-7.1-7.4-15.9-9.8-25.7-7.2zm11.6 12.8c10.3 5 12.7 18.4 4.9 27.1-5.8 6.4-13.6 7.5-21 2.9-8.6-5.2-10.4-17.9-3.8-25.8 5.1-6.1 12.7-7.7 19.9-4.2zM88 334.7c0 20.9.7 24.7 5.2 29.9 4.9 5.6 10.1 7.7 18.8 7.7 11.4.1 17.8-3.3 22.3-11.8 2-3.6 2.2-5.8 2.5-24.3l.3-20.2H124v17.6c0 11-.4 18.3-1.1 19.7-3.4 6.6-9 9-15.2 6.4-6-2.6-6.7-5.1-6.7-25.7v-18H88v18.7zM142 316.7c0 .4 4.9 12.7 10.9 27.3l11 26.5 5.9.3 5.9.3 2.1-4.8c4.9-11.5 20.2-49.2 20.2-49.8 0-.3-3-.5-6.6-.3l-6.7.3-7 18.2c-3.9 10.1-7.3 18.3-7.6 18.3-.3 0-3.8-8.2-7.6-18.3l-7-18.2-6.8-.3c-3.7-.2-6.7.1-6.7.5z"/>
    </g>
</svg>
