<svg width="200" height="38" viewBox="0 0 200 38" fill="none" xmlns="http://www.w3.org/2000/svg">
<g clip-path="url(#clip0)">
<path d="M200 0H0V37.6321H200V0Z" fill="white"/>
<path d="M96.1555 13.065C96.2049 13.072 96.2521 13.0903 96.2933 13.1185C96.3345 13.1467 96.3686 13.184 96.3931 13.2275C96.4392 13.2691 96.4729 13.3226 96.4906 13.3822C96.5082 13.4418 96.5091 13.505 96.4931 13.5651C96.4494 13.6602 96.4269 13.7638 96.4271 13.8685C96.4273 13.9732 96.4501 14.0766 96.4941 14.1717C96.5381 14.2667 96.6021 14.3511 96.6817 14.419C96.7614 14.487 96.8549 14.5369 96.9557 14.5652C97.0158 14.5843 97.0692 14.6205 97.1091 14.6693C97.1491 14.7181 97.174 14.7776 97.1807 14.8403C97.1928 14.94 97.1928 15.0407 97.1807 15.1404C97.1932 15.2734 97.1932 15.4074 97.1807 15.5404C97.0932 15.9405 97.6183 15.8905 97.6683 16.1655C97.7183 16.4406 97.8183 16.7156 98.1934 16.7156C98.5685 16.7156 98.5435 16.8782 98.6185 17.0907C98.7996 18.4329 98.8498 19.7896 98.7685 21.1415C98.7418 21.634 98.6536 22.1212 98.506 22.5918C98.406 23.0893 98.2061 23.5614 97.9184 23.9795C97.7808 24.0545 97.7683 24.2546 97.4933 24.2421C97.4286 24.2384 97.364 24.2522 97.3065 24.282C97.2489 24.3117 97.2003 24.3564 97.1659 24.4113C97.1314 24.4661 97.1123 24.5293 97.1105 24.5941C97.1087 24.6589 97.1243 24.723 97.1557 24.7797C97.1892 24.8249 97.2073 24.8797 97.2073 24.9359C97.2073 24.9922 97.1892 25.047 97.1557 25.0922C97.0683 25.1556 96.9662 25.1957 96.8591 25.2088C96.7519 25.2219 96.6432 25.2076 96.5431 25.1672C95.8555 24.9797 95.5554 25.2297 95.5929 25.9799C95.5929 26.0799 95.5929 26.1674 95.5179 26.2299H95.4429C94.0176 26.3425 92.5924 26.2299 91.1796 26.2299C90.932 26.2386 90.6863 26.1826 90.467 26.0674L90.3669 26.0049C90.5795 25.7173 90.2544 25.6673 90.1544 25.5298C89.9294 25.1922 89.7418 25.5298 89.5293 25.5298C89.3167 25.5298 89.4418 25.5298 89.4043 25.5298C89.1045 25.3462 88.8451 25.1038 88.6416 24.8172C88.6665 24.4425 88.6665 24.0666 88.6416 23.692C88.6416 23.0918 88.6416 23.0918 88.0665 22.9543C87.9519 22.9229 87.831 22.9229 87.7164 22.9543C87.4164 22.9543 87.4914 22.6793 87.3664 22.5667C87.2413 22.4542 87.3664 22.5667 87.3664 22.5042C87.2664 22.1792 87.2789 21.8166 87.1663 21.4915C87.1663 21.4915 87.1663 21.429 87.1663 21.404C87.2296 21.2106 87.255 21.0069 87.2414 20.8039C87.2414 20.0163 87.2414 19.2286 87.2414 18.4285C87.2414 18.3159 87.3164 18.1784 87.0788 18.2159C86.8413 18.2534 86.9913 18.0784 87.0038 17.9784C87.0163 17.8784 87.1413 17.6533 87.1038 17.4783C87.0663 17.3033 87.1038 17.1157 87.3789 17.1782C87.904 17.2783 87.954 17.1782 87.9415 16.6781C87.8977 16.0123 88.0592 15.349 88.4041 14.7778C88.5791 14.5152 88.4041 14.2777 88.4041 14.0276C88.6494 13.668 88.9692 13.3653 89.3417 13.14C89.4162 13.1019 89.4965 13.0766 89.5793 13.065C89.9294 12.99 90.0919 13.14 90.0169 13.4775C89.9512 13.7318 89.9512 13.9985 90.0169 14.2527C90.0383 13.9948 90.0383 13.7355 90.0169 13.4775C90.0169 13.14 90.2169 13.0275 90.517 13.0275H95.3304C95.5679 13.0275 95.8305 13.165 96.043 12.9399C96.0555 13.015 96.118 13.0525 96.1555 13.065Z" fill="black"/>
<path d="M152.241 25.1047C152.482 25.4892 152.655 25.912 152.754 26.355C151.95 26.405 151.144 26.405 150.341 26.355C149.88 26.4111 149.414 26.4111 148.953 26.355C148.757 26.0649 148.601 25.7494 148.49 25.4173C148.49 25.4173 148.49 25.3173 148.49 25.2923C148.55 25.2304 148.595 25.156 148.622 25.0746C148.649 24.9931 148.657 24.9067 148.646 24.8215C148.635 24.7364 148.606 24.6548 148.559 24.5827C148.513 24.5105 148.451 24.4497 148.378 24.4046C148.255 24.3602 148.149 24.2785 148.075 24.1708C148.001 24.0632 147.963 23.9351 147.965 23.8045C147.965 23.4669 147.965 23.1294 147.965 22.8043C147.978 22.6926 147.949 22.5803 147.884 22.4883C147.82 22.3963 147.724 22.3308 147.615 22.3042C147.561 22.2954 147.509 22.2755 147.463 22.2457C147.417 22.2159 147.377 22.177 147.346 22.1312C147.316 22.0855 147.295 22.0339 147.285 21.9798C147.276 21.9256 147.277 21.8701 147.29 21.8166C147.29 21.4415 147.14 21.079 147.165 20.7039C147.165 20.5414 147.078 20.4789 146.915 20.4914C146.753 20.5039 146.515 20.3288 146.54 20.0788C146.565 19.8287 146.753 19.7287 147.003 19.7537C147.447 19.7974 147.895 19.7974 148.34 19.7537C147.54 19.6162 146.702 19.7537 145.902 19.6287C145.902 19.7412 145.902 19.9538 145.69 19.9663C145.477 19.9788 145.465 19.7662 145.44 19.6162C145.415 19.4662 145.44 19.4162 145.44 19.3161C145.44 19.2161 145.44 19.0411 145.215 19.0536C144.99 19.0661 145.027 19.2036 145.015 19.3286C144.94 19.8412 145.015 19.9788 145.452 20.1913C145.89 20.4038 145.702 20.5664 145.702 20.7914V25.3548C145.712 25.4859 145.693 25.6175 145.647 25.7405C145.6 25.8634 145.527 25.9747 145.433 26.0664C145.339 26.1582 145.226 26.2282 145.102 26.2716C144.978 26.3149 144.845 26.3306 144.715 26.3174H142.752C142.592 26.3369 142.431 26.3064 142.289 26.2299C142.177 26.1049 142.289 25.9549 142.289 25.8174C142.289 21.6291 142.289 17.4533 142.289 13.315C142.295 13.2694 142.295 13.2231 142.289 13.1775C142.289 12.9524 142.402 12.9774 142.539 12.9524C142.749 12.884 142.97 12.8584 143.189 12.8774H145.265C145.585 12.9139 145.9 12.9894 146.202 13.1025C147.018 13.3464 147.887 13.3464 148.703 13.1025C148.79 13.1025 148.853 12.9649 148.965 13.1025C149.053 13.2775 149.215 13.3025 149.378 13.3775C149.541 13.4525 149.991 13.5901 149.953 14.0526C149.953 14.7778 149.953 14.8153 150.703 14.7278C150.788 14.7243 150.87 14.6984 150.941 14.6528C150.753 14.5152 150.391 14.6528 150.391 14.2527C150.388 14.1719 150.409 14.0921 150.451 14.0232C150.493 13.9543 150.555 13.8994 150.628 13.8651C151.313 14.2845 151.817 14.9443 152.041 15.7155C152.007 15.9034 152.037 16.0975 152.129 16.2656C152.129 16.4281 151.991 16.4406 151.991 16.5531C152.216 16.4531 152.204 16.6656 152.216 16.7532C152.26 16.9929 152.26 17.2385 152.216 17.4783V17.4783C152.066 17.6533 152.003 17.9034 151.728 17.9784C151.641 17.9784 151.541 18.1409 151.616 18.2159C151.966 18.516 151.616 18.766 151.616 19.0411C151.418 19.4136 151.113 19.7184 150.741 19.9162C150.441 19.9162 150.266 20.1538 150.028 20.2788C149.791 20.4038 150.028 20.6039 150.103 20.7289C150.177 20.7974 150.237 20.8805 150.278 20.973C150.319 21.0655 150.34 21.1654 150.341 21.2665C150.303 21.8076 150.303 22.3507 150.341 22.8918C150.341 23.3044 150.341 23.7045 150.341 24.142C150.341 24.5796 150.453 24.5421 150.728 24.5296C150.928 24.5421 151.129 24.5421 151.328 24.5296C151.778 24.4671 151.791 24.4671 151.791 24.9172C151.764 24.9898 151.764 25.0696 151.791 25.1422C152.003 24.6046 152.104 24.8922 152.241 25.1047Z" fill="black"/>
<path d="M121.398 20.0037V19.9287C121.26 19.4411 121.548 18.966 121.473 18.466C121.462 18.2146 121.39 17.9696 121.263 17.752C121.137 17.5343 120.96 17.3503 120.748 17.2157C120.66 17.2157 120.66 16.9157 120.523 17.2157C120.198 17.6783 120.448 18.1909 120.373 18.6785C120.248 20.1163 120.11 21.554 119.973 22.9793L119.747 25.0922C119.635 25.2047 119.835 25.4548 119.547 25.4798L119.472 25.4048C119.472 25.4673 119.472 25.4048 119.472 25.4048C119.472 25.4048 119.71 25.4048 119.647 25.5923V25.8298C119.047 25.9193 118.436 25.8896 117.847 25.7423C117.529 25.6485 117.19 25.6485 116.872 25.7423C116.459 25.8673 116.372 25.8048 116.409 25.3798C116.447 24.9547 116.409 24.7171 116.409 24.3921C116.409 24.3045 116.334 24.1295 116.559 24.1795C116.784 24.2295 116.672 24.267 116.672 24.1795C116.644 23.7856 116.674 23.3898 116.759 23.0043C116.789 22.9658 116.827 22.9356 116.872 22.9168C117.042 22.8915 117.215 22.8915 117.385 22.9168C117.835 22.9168 117.885 22.9168 117.885 22.4167C117.885 21.1665 117.885 19.8162 117.885 18.516C117.885 17.8283 117.885 17.1532 117.885 16.4781C117.885 16.303 117.885 16.153 117.66 16.1655C117.435 16.178 117.51 15.9405 117.447 15.8155V15.6404C117.447 15.3904 117.647 15.2654 117.722 15.0528C117.807 14.6242 117.858 14.1894 117.872 13.7526C117.868 13.6869 117.878 13.6212 117.902 13.56C117.926 13.4988 117.964 13.4437 118.011 13.3984C118.059 13.3531 118.116 13.3188 118.178 13.2979C118.241 13.277 118.307 13.27 118.372 13.2775C119.51 13.2775 120.66 13.2775 121.81 13.2775C122.21 13.2775 122.298 13.3775 122.298 13.8151C122.298 14.8153 122.298 15.8155 122.298 16.8156C122.298 17.3032 122.298 17.3157 122.798 17.4158C123.298 17.5158 123.073 17.1407 123.236 17.0532C123.398 16.9657 123.311 17.4533 123.561 17.4908C123.661 17.7945 123.724 18.1094 123.748 18.4284C123.836 18.6785 123.636 18.966 123.848 19.2036C124.061 19.4411 123.848 19.3661 123.761 19.4286C123.673 19.4911 123.498 19.7287 123.623 19.9662C123.748 20.2038 123.986 20.1663 124.186 20.1663C124.244 20.1725 124.303 20.1725 124.361 20.1663C124.723 20.1663 124.848 20.0287 124.836 19.6787C124.836 19.1286 124.836 18.566 124.836 18.0159C124.836 17.6658 124.836 17.4158 125.286 17.3657C125.486 17.3657 125.549 17.2032 125.574 17.0407C125.577 16.9898 125.59 16.94 125.612 16.8941C125.635 16.8483 125.666 16.8074 125.705 16.7737C125.743 16.74 125.787 16.7142 125.836 16.6978C125.884 16.6814 125.935 16.6747 125.986 16.6781H126.074C127.324 16.6781 127.149 16.6781 127.224 17.7033C127.276 18.5481 127.174 19.3952 126.924 20.2038C126.861 20.4163 126.924 20.6289 126.824 20.8289C126.824 21.0019 126.786 21.1727 126.711 21.329C126.51 21.6071 126.425 21.9521 126.474 22.2917C126.161 23.5419 125.861 24.9172 125.549 26.2174C125.547 26.2493 125.539 26.2806 125.525 26.3092C125.51 26.3377 125.49 26.3629 125.465 26.383C125.44 26.4031 125.412 26.4177 125.381 26.4258C125.35 26.4339 125.317 26.4353 125.286 26.4299C124.598 26.4299 123.923 26.4299 123.236 26.4299C122.861 26.4299 122.936 26.1674 122.886 25.9549C122.929 25.6155 122.868 25.2711 122.711 24.9672C122.636 24.8797 122.711 24.7796 122.711 24.6921C122.923 24.3796 122.886 23.817 122.56 23.7169C122.235 23.6169 122.248 23.4419 122.16 23.2419C122.05 23.0055 121.983 22.7515 121.96 22.4917C121.923 22.3356 121.923 22.1727 121.96 22.0166C121.96 21.8916 121.96 21.8791 121.86 21.8041C121.76 21.7291 121.86 21.5165 121.71 21.429C121.704 21.0737 121.679 20.719 121.635 20.3663C121.635 20.1163 121.51 20.1163 121.398 20.0037Z" fill="black"/>
<path d="M107.97 16.8156C107.995 16.5212 108.058 16.2313 108.158 15.953C108.19 15.9343 108.218 15.909 108.239 15.8789C108.261 15.8487 108.276 15.8143 108.283 15.778C108.283 15.6654 108.283 15.4904 108.495 15.4904C108.708 15.4904 108.633 15.6529 108.67 15.7529C108.708 15.853 109.008 15.8905 109.195 15.903C109.383 15.9155 109.496 15.7905 109.508 15.5779C109.508 15.1153 109.508 14.6527 109.508 14.1902V14.0151C109.508 13.14 109.508 13.14 110.371 13.1275C110.596 13.1275 110.846 13.1275 110.983 12.9024C111.58 12.7548 112.2 12.725 112.809 12.8149C112.971 12.8149 113.021 12.9899 113.134 13.0899C113.246 13.19 113.484 13.2275 113.484 12.9149C113.473 12.8782 113.473 12.8391 113.484 12.8024C113.771 12.7024 113.671 12.9649 113.746 13.0774L113.859 14.0026C113.828 14.3604 113.828 14.7201 113.859 15.0778C113.859 15.7404 113.859 16.4031 113.859 17.0532C113.859 19.2286 113.859 21.404 113.859 23.5919C113.859 23.7169 113.859 23.842 113.859 23.9795C113.859 24.117 113.859 24.242 114.084 24.242C114.309 24.242 114.234 24.1045 114.246 23.992C114.259 23.8795 114.772 23.4169 114.909 23.4544C115.047 23.4919 115.109 23.7294 115.059 23.892C115.009 24.0545 114.972 24.2545 115.159 24.3921C115.265 24.925 115.34 25.4634 115.384 26.0049C115.384 26.1674 115.384 26.2299 115.197 26.2299C114.634 26.2299 114.046 26.4425 113.534 26.0049C113.346 25.8548 113.084 25.9299 112.859 25.9299C112.284 25.9299 112.221 25.8423 112.334 25.2922C112.358 25.2065 112.358 25.1155 112.334 25.0297C112.177 24.4389 112.127 23.8252 112.184 23.2168C112.184 22.9668 112.184 22.8043 111.833 22.7668C111.483 22.7293 111.533 22.4417 111.496 22.2042C111.458 21.9666 111.596 21.7791 111.883 21.8041C112.171 21.8291 112.196 21.7291 112.196 21.504C112.196 21.279 112.196 21.0539 111.896 21.0289C111.783 21.0237 111.674 20.9845 111.583 20.9164C111.631 20.9806 111.663 21.055 111.677 21.1338C111.691 21.2125 111.686 21.2934 111.663 21.3699C111.64 21.4465 111.599 21.5165 111.544 21.5746C111.489 21.6326 111.421 21.6769 111.346 21.7041C111.276 21.3923 111.242 21.0734 111.246 20.7539C111.27 20.3339 111.232 19.9126 111.133 19.5037C111.133 19.3661 111.058 19.0911 111.383 19.2786C111.521 19.3536 111.571 19.2786 111.571 19.1286C111.603 19.0483 111.603 18.9588 111.571 18.8785C111.25 18.517 111.077 18.0488 111.083 17.5658C111.083 17.4908 110.996 17.5033 110.958 17.4783L110.846 17.0157L110.146 20.0037C110.058 20.1163 109.908 20.1038 109.796 20.1538C109.683 20.2038 109.521 20.3788 109.683 20.4913C109.846 20.6039 109.808 20.9664 109.796 21.1915C109.831 21.3562 109.831 21.5268 109.796 21.6916C109.508 23.1793 109.083 24.6421 108.745 26.1299C108.745 26.3299 108.57 26.3299 108.42 26.3299H106.395C106.207 26.3299 106.107 26.3299 106.057 26.0924C105.745 24.8422 105.42 23.5044 105.095 22.2167C105.07 22.1772 105.057 22.1317 105.057 22.0854C105.057 22.039 105.07 21.9936 105.095 21.9541C105.163 21.89 105.217 21.8125 105.254 21.7264C105.29 21.6403 105.308 21.5475 105.307 21.454V19.7037C105.307 19.4786 105.307 19.3036 104.995 19.2911C104.948 19.2928 104.901 19.285 104.857 19.2681C104.813 19.2513 104.773 19.2258 104.739 19.1931C104.705 19.1604 104.678 19.1213 104.66 19.078C104.642 19.0347 104.632 18.9881 104.632 18.941C104.632 18.7285 104.632 18.516 104.795 18.3909C104.881 18.3365 104.98 18.3076 105.082 18.3076C105.184 18.3076 105.284 18.3365 105.37 18.3909L105.47 18.4785C105.832 18.7535 105.845 18.741 105.957 18.3034C106.07 17.8658 106.357 17.9159 106.507 17.6658C106.658 17.4158 106.67 17.6658 106.683 17.7533C106.695 17.8408 106.683 18.0159 106.82 18.1034C106.964 18.6508 107.077 19.206 107.158 19.7662C107.158 19.8662 107.158 20.0162 107.32 20.0162C107.483 20.0162 107.545 20.1038 107.645 20.1663C107.725 20.2188 107.822 20.2378 107.916 20.2191C108.009 20.2003 108.092 20.1454 108.145 20.0663C108.295 19.9162 108.145 19.7787 108.033 19.6662C107.968 19.5872 107.881 19.5304 107.783 19.5037C107.726 19.4927 107.673 19.4679 107.628 19.4316C107.584 19.3952 107.549 19.3483 107.526 19.2951C107.504 19.2419 107.495 19.184 107.501 19.1266C107.506 19.0692 107.526 19.0141 107.558 18.966C107.683 18.2534 107.895 17.5033 107.97 16.8156Z" fill="black"/>
<path d="M169.682 20.2288C169.731 20.4259 169.731 20.6318 169.682 20.8289C168.632 20.9164 167.581 20.8289 166.519 20.8289C166.519 20.8289 166.519 20.8289 166.419 20.6664H169.194C168.273 20.6904 167.35 20.6653 166.431 20.5914C166.219 20.5914 166.131 20.5914 166.169 20.8539C166.248 21.7768 166.277 22.7034 166.256 23.6294C166.25 23.746 166.25 23.8629 166.256 23.9795C166.256 24.0795 166.256 24.1795 166.431 24.192C166.606 24.2045 166.581 24.092 166.581 23.9795C166.581 23.867 166.756 23.6294 166.956 23.6044C167.788 23.5178 168.626 23.5178 169.457 23.6044C169.511 23.6005 169.564 23.6096 169.614 23.6309C169.664 23.6521 169.707 23.6849 169.742 23.7265C169.776 23.7681 169.8 23.8174 169.811 23.8701C169.822 23.9228 169.821 23.9775 169.807 24.0295C169.894 23.917 169.807 23.7044 169.994 23.7169C170.182 23.7295 170.132 23.892 170.132 24.0045C170.169 24.7458 170.169 25.4886 170.132 26.2299C170.132 26.3049 170.132 26.3674 170.007 26.3174C169.849 26.3423 169.689 26.3423 169.532 26.3174C167.856 26.2549 166.169 26.3174 164.531 26.3174C164.073 26.355 163.613 26.355 163.156 26.3174C163.083 26.3139 163.013 26.2877 162.956 26.2424C162.945 26.2342 162.937 26.2238 162.931 26.2119C162.925 26.2 162.922 26.1869 162.922 26.1737C162.922 26.1604 162.925 26.1474 162.931 26.1354C162.937 26.1235 162.945 26.1131 162.956 26.1049C162.956 26.0424 163.106 25.9924 163.043 25.8924C162.901 25.633 162.849 25.3344 162.893 25.0422C162.893 21.404 162.893 17.7658 162.893 14.1152C162.889 13.8782 162.938 13.6434 163.035 13.4273C163.132 13.2112 163.276 13.0192 163.456 12.8649C163.643 12.6524 163.893 12.7149 164.131 12.8649C164.313 12.9952 164.532 13.0653 164.756 13.0653C164.98 13.0653 165.199 12.9952 165.381 12.8649C165.866 12.6655 166.409 12.6655 166.894 12.8649C167.08 12.9855 167.297 13.0496 167.519 13.0496C167.741 13.0496 167.958 12.9855 168.144 12.8649C168.336 12.7661 168.546 12.7084 168.761 12.6955C168.977 12.6826 169.192 12.7148 169.394 12.7899C169.564 13.0253 169.677 13.2967 169.725 13.5829C169.772 13.8691 169.753 14.1625 169.669 14.4402C169.669 14.6402 169.457 14.6778 169.269 14.7028C169.082 14.7278 168.832 14.7028 168.619 14.7028C168.407 14.7028 168.357 14.7028 168.369 14.9403C168.382 15.1778 168.482 15.1153 168.607 15.1278C168.881 15.1466 169.157 15.1466 169.432 15.1278C169.657 15.1278 169.694 14.9653 169.732 14.7778C169.798 14.2638 169.828 13.7457 169.819 13.2275C169.799 13.0733 169.826 12.9167 169.894 12.7774C169.915 12.764 169.939 12.7568 169.963 12.7568C169.988 12.7568 170.011 12.764 170.032 12.7774C170.269 12.7774 170.244 13.0149 170.244 13.19V15.0028C170.244 15.3904 170.144 15.4904 169.744 15.4904C168.657 15.4904 167.581 15.4904 166.494 15.4904C166.069 15.4904 166.256 15.8155 166.294 16.0405C166.375 16.617 166.375 17.2019 166.294 17.7783C166.031 17.8659 166.069 17.6408 166.056 17.5158C166.044 17.3908 166.056 16.9157 166.056 16.6031C166.056 16.2906 166.056 16.2531 165.844 16.2405C165.631 16.228 165.619 16.4281 165.619 16.5781C165.619 17.1782 165.619 17.7658 165.619 18.3659C165.619 18.5035 165.619 18.6785 165.819 18.7035C166.019 18.7285 166.006 18.5535 166.019 18.4285C166.025 18.3334 166.067 18.2443 166.137 18.1793C166.207 18.1142 166.298 18.0782 166.394 18.0784C167.014 18.1764 167.643 18.2058 168.269 18.1659C168.719 18.1659 169.157 18.1659 169.607 18.1659C169.631 18.176 169.652 18.1914 169.67 18.2109C169.687 18.2303 169.7 18.2534 169.707 18.2784C169.669 18.9161 169.569 19.5787 169.682 20.2288Z" fill="black"/>
<path d="M152.941 16.253C152.963 16.0905 153.033 15.9382 153.141 15.8154C153.259 15.7271 153.339 15.5977 153.366 15.4529V15.4529C153.486 15.3723 153.582 15.2597 153.641 15.1278C153.716 15.0028 153.804 15.3654 153.854 15.1278C153.854 15.1278 154.229 15.1278 153.854 15.0528C153.814 15.0362 153.782 15.0045 153.766 14.9647C153.75 14.9248 153.75 14.8801 153.766 14.8403V14.7527C154.029 14.6027 154.229 14.2652 154.616 14.5402C154.704 14.5402 154.742 14.4152 154.716 14.3652C154.683 14.2548 154.677 14.1379 154.699 14.0247C154.721 13.9115 154.77 13.8052 154.842 13.7151C155.017 13.5304 155.23 13.3855 155.467 13.29C155.715 13.185 155.985 13.1421 156.254 13.1649C156.592 13.1649 156.579 12.8274 156.767 12.6774C156.809 12.6402 156.859 12.6121 156.913 12.5949C156.967 12.5777 157.023 12.5717 157.079 12.5773C157.192 12.5712 157.305 12.5712 157.417 12.5773C158.06 12.4031 158.737 12.4031 159.38 12.5773C159.38 12.5773 159.38 12.5773 159.38 12.5148C159.38 12.4523 159.605 12.3898 159.742 12.4023C159.88 12.4148 160.017 12.5648 160.042 12.5523C160.33 12.2523 160.668 12.5523 160.968 12.4648H161.28C161.768 12.8274 161.805 12.9649 161.493 13.5025C161.431 13.6486 161.406 13.8071 161.418 13.9651C161.418 14.3402 161.418 14.7152 161.418 15.0903C161.418 15.4654 161.268 15.5529 160.993 15.5154C160.718 15.4779 160.468 15.5154 160.218 15.5154H159.405C159.155 15.5847 158.892 15.5847 158.642 15.5154C158.582 15.4854 158.515 15.4694 158.447 15.4687C158.379 15.4681 158.312 15.4827 158.251 15.5116C158.19 15.5404 158.136 15.5827 158.093 15.6353C158.05 15.6879 158.02 15.7495 158.005 15.8154L157.817 16.1655L157.53 16.253C157.117 16.253 157.154 16.5781 157.029 16.8031C156.917 16.9407 156.804 17.0782 156.629 16.8031C156.613 16.7845 156.593 16.7696 156.57 16.7594C156.547 16.7492 156.523 16.7439 156.498 16.7439C156.473 16.7439 156.449 16.7492 156.426 16.7594C156.403 16.7696 156.383 16.7845 156.367 16.8031C156.267 16.9031 156.367 16.9782 156.367 17.0657C156.453 17.1946 156.533 17.3281 156.604 17.4658L156.292 18.5034C156.235 18.5353 156.19 18.5832 156.161 18.6411C156.132 18.6991 156.121 18.7643 156.129 18.8285C156.129 20.0037 156.054 21.1664 156.129 22.3417C156.129 22.8793 156.129 22.8793 156.642 22.9168C157.154 22.9543 157.167 23.0293 157.167 23.4794C157.167 24.3545 157.092 24.3045 158.042 24.3045H159.08C159.136 24.302 159.189 24.2799 159.23 24.242C159.23 24.092 158.98 23.9545 159.117 23.7544C159.172 23.6788 159.247 23.6192 159.332 23.5819C159.418 23.5445 159.512 23.5307 159.605 23.5419C159.634 23.5429 159.663 23.5366 159.69 23.5235C159.716 23.5104 159.738 23.4909 159.755 23.4669H160.03C160.03 23.4669 160.168 23.4669 160.193 23.4669C160.218 23.4669 160.093 23.8044 160.305 23.5419C160.305 23.5419 160.405 23.4419 160.443 23.4794C160.743 23.7294 161.118 23.5919 161.443 23.6544C161.479 23.659 161.514 23.6708 161.546 23.6891C161.577 23.7073 161.605 23.7317 161.627 23.7608C161.649 23.7899 161.665 23.8232 161.674 23.8586C161.684 23.8939 161.686 23.9308 161.68 23.967C161.68 24.5921 161.68 25.2172 161.68 25.8673C161.518 25.9628 161.328 25.9982 161.143 25.9673H157.717C157.354 25.9673 157.029 25.9673 157.004 25.4923C157.002 25.4585 156.992 25.4257 156.975 25.3962C156.959 25.3666 156.936 25.3409 156.909 25.3207C156.882 25.3006 156.85 25.2865 156.817 25.2795C156.784 25.2724 156.75 25.2725 156.717 25.2797C156.242 25.3422 155.817 24.9797 155.317 25.2797C155.104 25.3797 155.017 25.1047 155.004 24.9172C154.992 24.7296 155.004 24.4671 154.604 24.5921C154.204 24.7171 154.141 24.4296 154.241 24.142C154.341 23.8545 154.241 23.4794 154.241 23.1543C154.245 23.1286 154.242 23.1024 154.233 23.0782C154.223 23.054 154.208 23.0326 154.188 23.0162C154.167 22.9998 154.143 22.989 154.118 22.9847C154.092 22.9804 154.066 22.9829 154.041 22.9918C153.97 23.0108 153.895 23.0078 153.826 22.9833C153.757 22.9587 153.697 22.9137 153.654 22.8543C153.647 22.8129 153.647 22.7706 153.654 22.7292C153.654 22.4292 153.729 22.2541 154.054 22.2541C154.179 22.2541 154.291 22.2541 154.279 22.0541C154.266 21.8541 154.154 21.8541 154.016 21.8416C153.698 21.859 153.379 21.838 153.066 21.7791C152.933 21.7094 152.831 21.5924 152.78 21.4512C152.729 21.31 152.733 21.1549 152.791 21.0164C152.879 20.7289 152.666 20.4038 152.791 20.1163C152.916 19.5369 152.979 18.946 152.979 18.3534C152.979 18.3534 152.979 18.2034 152.979 18.1409C152.629 17.6658 152.904 17.2782 153.141 16.8906C153.054 16.6031 152.879 16.4031 152.941 16.253Z" fill="black"/>
<path d="M81.9529 22.6542L82.453 23.0043C82.603 23.1793 82.5405 23.4044 82.5655 23.5544C83.1781 23.8294 83.7532 23.5544 84.3533 23.5544C84.4408 23.5544 84.2783 23.4544 84.3533 23.4169C84.4813 23.3922 84.6129 23.3922 84.7409 23.4169C84.8716 23.4938 85.0205 23.5344 85.1722 23.5344C85.3239 23.5344 85.4728 23.4938 85.6035 23.4169C85.7286 23.3419 85.8536 23.2168 86.0286 23.2918C86.0849 24.237 86.0849 25.1847 86.0286 26.1299V26.1299C85.913 26.2822 85.7571 26.3991 85.5785 26.4674C85.4173 26.5388 85.2422 26.573 85.0659 26.5675H84.7659C84.5284 26.5675 84.3783 26.5675 84.4033 26.2424C84.4283 25.9173 84.2658 25.8548 83.9907 25.8548C83.1156 25.8548 82.2279 25.8548 81.3528 25.8548C81.095 25.8625 80.8391 25.9003 80.5901 25.9673C80.3077 25.8835 80.0473 25.7384 79.8275 25.5423C79.7744 25.4719 79.7283 25.3965 79.6899 25.3172C79.4649 24.8171 79.5649 24.6296 80.1025 24.5296C79.8551 24.553 79.6057 24.5189 79.3736 24.43C79.1415 24.341 78.9332 24.1997 78.7648 24.017C78.7023 23.9545 78.5897 23.867 78.6022 24.0795C78.6147 24.292 78.6022 24.267 78.4022 24.2295C78.2114 24.0685 78.0579 23.868 77.9521 23.6419C77.8271 23.4669 77.9521 23.1793 77.6396 23.0918C77.552 22.7542 77.352 22.4167 77.6396 22.0916C77.6494 22.0723 77.6546 22.0508 77.6546 22.0291C77.6546 22.0074 77.6494 21.986 77.6396 21.9666C77.4863 21.4351 77.4312 20.8801 77.477 20.3288C77.4612 20.2151 77.4085 20.1097 77.327 20.0287C77.2079 19.9092 77.141 19.7474 77.141 19.5786C77.141 19.4099 77.2079 19.2481 77.327 19.1286C77.4184 19.0252 77.4878 18.9042 77.5308 18.7731C77.5738 18.6419 77.5895 18.5034 77.577 18.3659C77.577 17.7533 77.577 17.1157 77.577 16.5406C77.577 16.228 77.6521 16.028 78.0271 16.078C78.4022 16.128 78.4397 15.9905 78.6647 16.003C77.9646 16.003 78.1772 15.5279 78.3022 15.1403C78.5022 14.9653 78.6022 15.3404 78.7523 15.2278C78.9023 15.1153 78.8273 14.8653 78.9773 14.7277C79.1317 14.6245 79.318 14.5801 79.5024 14.6027C80.2275 14.6027 80.3526 14.4777 80.3026 13.7776C80.3026 13.415 80.4276 13.315 80.7401 13.3025H81.2652C81.4278 13.3025 81.5903 13.3025 81.5778 13.0524C81.5653 12.8024 81.7528 12.8149 81.8778 12.8774C82.8905 13.4775 84.0032 13.1524 85.0659 13.215C85.7411 13.215 85.8036 13.29 85.8161 13.9776C85.8161 14.4152 85.8161 14.8653 85.8161 15.3153C85.8161 15.5029 85.8161 15.6779 85.5785 15.7029C85.0081 15.609 84.4313 15.5588 83.8532 15.5529C83.3334 15.5875 82.8286 15.7415 82.3779 16.003C81.8403 15.6904 81.9779 16.228 81.8403 16.4156L81.6778 16.5781C81.4778 16.6906 81.3152 16.353 81.1277 16.5781C80.9402 16.8031 81.2652 16.9282 81.1277 17.1282C80.9902 17.3282 81.1277 17.3282 81.1277 17.4157L80.8652 18.0284C80.6776 18.2784 80.7276 18.5785 80.6526 18.8535C80.4911 19.3534 80.4911 19.8914 80.6526 20.3913C80.4698 21.1904 80.4233 22.0147 80.5151 22.8293C80.515 22.8802 80.5343 22.9293 80.5692 22.9665C80.604 23.0036 80.6518 23.0261 80.7026 23.0293C81.0056 23.0464 81.3066 23.0882 81.6028 23.1543C81.7028 23.1543 81.7403 23.1543 81.7653 23.0043C81.7903 22.8543 81.7778 22.6042 81.9529 22.6542Z" fill="black"/>
<path d="M100.831 14.1276V13.8651C100.977 13.7205 101.069 13.5311 101.094 13.3275C101.125 13.2143 101.194 13.1152 101.29 13.047C101.386 12.9787 101.502 12.9453 101.619 12.9524H105.07C105.245 12.9524 105.432 12.9524 105.495 13.1775C105.595 14.4277 105.495 15.5404 105.495 16.7281C105.495 16.8782 105.495 17.0157 105.495 17.1657C105.497 17.2165 105.488 17.2672 105.469 17.3144C105.45 17.3616 105.421 17.4043 105.385 17.4396C105.348 17.475 105.304 17.5023 105.257 17.5197C105.209 17.5371 105.158 17.5443 105.107 17.5408C104.62 17.5408 104.145 17.5408 103.857 17.0782C103.769 16.9407 103.669 17.0032 103.557 17.0032C103.444 17.0032 103.469 17.1532 103.469 17.2282C103.469 17.5908 103.469 17.9409 103.469 18.3034C103.516 18.9044 103.422 19.508 103.194 20.0663C103.057 20.3663 103.307 20.6414 103.194 20.9414C103.194 21.8916 103.032 22.8418 102.907 23.792C102.819 23.8795 102.619 23.792 102.707 24.117C102.857 24.6296 102.619 25.1672 102.707 25.6923C102.707 25.8673 102.557 25.8923 102.432 25.9048C101.632 25.9048 100.844 25.9048 100.044 25.9048C99.6937 25.9048 99.6937 25.5923 99.6312 25.3422C99.5687 25.0922 99.7812 24.9547 99.4311 24.8672C99.2811 24.8672 99.4311 24.3421 99.7312 24.117C99.8187 23.4294 99.7312 22.7418 99.7312 22.0541C99.7312 21.579 99.8062 21.504 100.294 21.4915H100.594C100.856 21.4915 100.994 21.3915 100.994 21.1164C100.994 20.0663 100.994 19.0036 100.994 17.9534C100.994 17.7033 100.881 17.5783 100.631 17.5783C100.381 17.5783 100.281 17.5033 100.319 17.2157C100.371 16.8802 100.404 16.5422 100.419 16.203C100.448 15.6821 100.515 15.1639 100.619 14.6527C100.744 14.5402 101.006 14.7278 101.044 14.5027C101.081 14.2777 100.944 14.2527 100.831 14.1276Z" fill="black"/>
<path d="M125.223 15.0778V15.0028C125.461 14.7778 125.386 14.4402 125.524 14.1777C125.661 13.9151 125.524 14.0151 125.611 13.9401C125.961 13.215 125.961 13.19 126.861 13.165C127.974 13.165 129.087 13.165 130.199 13.165C130.512 13.165 130.612 13.315 130.662 13.6026C130.71 14.1071 130.789 14.6082 130.9 15.1028C130.998 15.5131 131.056 15.9317 131.075 16.3531C131.004 16.8623 131.034 17.3805 131.162 17.8784C131.353 18.6337 131.433 19.4129 131.4 20.1913C131.4 20.8164 131.4 21.4415 131.4 22.0541C131.4 22.6668 131.4 22.7418 131.987 22.9793C132.035 23.2731 132.064 23.5696 132.075 23.867C132.024 24.0765 132.024 24.2951 132.075 24.5046C132.237 24.9547 131.987 25.2923 131.837 25.6548C131.8 25.7333 131.739 25.7978 131.662 25.8384C131.586 25.8789 131.498 25.8935 131.412 25.8799C130.775 25.8799 130.162 25.8799 129.499 25.8799C129.112 25.8799 129.012 25.6298 129.012 25.3048V22.4042C129.012 22.0792 129.012 21.7916 128.599 21.7166C128.187 21.6416 128.349 21.4915 128.337 21.3165C128.324 21.1415 128.337 20.6539 128.237 20.3288C128.244 20.2688 128.265 20.2113 128.298 20.1606C128.331 20.1099 128.375 20.0672 128.427 20.036C128.478 20.0047 128.536 19.9855 128.597 19.9799C128.657 19.9744 128.718 19.9825 128.774 20.0038C128.974 20.0038 129.024 19.9412 129.037 19.7787C129.049 19.6162 129.037 19.3036 129.037 19.0786C129.037 18.8535 129.037 18.6535 128.699 18.616C128.362 18.5785 128.349 18.3535 128.362 18.1034C128.374 17.8534 128.474 17.6533 128.762 17.6283C129.049 17.6033 128.999 17.6283 129.012 17.4533C129.055 17.1046 129.055 16.7518 129.012 16.4031C129.012 16.178 128.762 16.203 128.599 16.1905H126.849C126.524 16.1905 126.274 16.1905 126.249 15.7405C126.249 15.5654 126.099 15.5154 125.949 15.4779C125.805 15.4703 125.666 15.4303 125.54 15.361C125.415 15.2917 125.306 15.1949 125.223 15.0778V15.0778Z" fill="black"/>
<path d="M125.223 15.0778C125.536 15.1528 125.799 15.4029 126.161 15.3529C126.524 15.3029 126.386 15.4654 126.361 15.6029C126.361 16.003 126.511 16.053 126.849 16.0405C127.461 16.0405 128.099 16.0405 128.712 16.0405C129.037 16.0405 129.199 16.1155 129.162 16.4781C129.124 16.8407 129.162 16.9907 129.162 17.2532C129.162 17.5158 129.262 17.9159 128.712 17.7408C128.512 17.6658 128.462 17.8783 128.474 18.0534C128.487 18.2284 128.374 18.516 128.712 18.4785C129.049 18.4409 129.199 18.6535 129.174 18.9911C129.149 19.3286 129.174 19.6662 129.174 19.9912C129.174 20.3163 129.062 20.3163 128.912 20.1913C128.762 20.0663 128.474 20.1913 128.312 20.3163V20.3788C128.312 20.4663 128.312 20.5538 128.212 20.6039L127.861 17.6283C127.749 17.5408 127.949 17.3157 127.711 17.2782C127.411 18.4409 127.186 19.6287 126.836 20.7789C126.836 20.5288 126.686 20.3038 126.761 20.0538C126.874 20.0538 126.761 20.1913 126.861 20.2288C127.006 19.6898 127.09 19.1362 127.111 18.5785C127.08 18.0538 127.08 17.5278 127.111 17.0032C127.111 17.0032 127.111 16.9407 127.111 16.9157C126.811 16.5531 126.399 16.8281 126.036 16.7531C125.674 16.6781 125.711 16.7531 125.736 17.0032C125.761 17.2532 125.661 17.4908 125.298 17.4533C124.936 17.4158 124.961 17.6533 124.986 17.8533C125.036 18.4148 125.036 18.9797 124.986 19.5412C124.986 20.3288 125.086 20.2288 124.298 20.2288C124.242 20.0498 124.242 19.8577 124.298 19.6787C124.525 18.1297 124.833 16.5939 125.223 15.0778V15.0778Z" fill="#010101"/>
<path d="M103.444 18.3034C103.444 17.8158 103.444 17.3407 103.444 16.8531C103.444 16.7406 103.544 16.6906 103.619 16.8531C103.694 17.0157 103.619 16.8531 103.619 16.9406C104.17 16.5031 104.045 17.3407 104.42 17.3782H105.345C105.52 17.3782 105.507 17.2282 105.507 17.0907C105.507 16.0155 105.507 14.9278 105.507 13.8401C105.507 13.6275 105.145 13.4275 105.507 13.2149C105.62 12.8774 105.745 13.0774 105.87 13.2149C106.27 14.8403 106.62 16.4656 106.895 18.1034C106.657 18.0283 106.657 18.0283 106.62 17.7033C106.62 17.9283 106.507 18.1659 106.182 18.1659C106.057 18.1659 106.182 18.3284 106.182 18.4284C106.182 18.5284 106.307 18.741 106.107 18.7785C105.907 18.816 105.657 18.9285 105.545 18.641C105.432 18.3534 105.195 18.3784 105.007 18.4034C104.82 18.4284 104.857 18.7035 104.845 18.8785C104.832 19.0535 104.932 19.1786 105.132 19.1536C105.332 19.1286 105.557 19.3036 105.545 19.6036C105.545 20.2413 105.545 20.8539 105.545 21.5165C105.559 21.6186 105.542 21.7226 105.495 21.8144C105.448 21.9062 105.374 21.9811 105.282 22.0291C105.137 21.7873 105.039 21.5199 104.995 21.2415C105.029 20.8298 105.037 20.4164 105.02 20.0037C105.02 19.8537 105.02 19.6286 104.807 19.6412C104.732 19.6412 104.807 19.7662 104.807 19.8162C104.829 19.8518 104.841 19.893 104.841 19.935C104.841 19.9769 104.829 20.0181 104.807 20.0537C104.807 20.1162 104.682 20.1663 104.582 20.1162L104.145 18.7535C103.917 18.3206 103.788 17.8421 103.769 17.3532C103.769 17.5908 103.832 17.9408 103.644 18.2284C103.619 18.2549 103.587 18.2754 103.553 18.2883C103.518 18.3013 103.481 18.3065 103.444 18.3034V18.3034Z" fill="#010101"/>
<path d="M142.314 26.1424C143.127 26.1424 143.939 26.1424 144.815 26.1424C145.017 26.1426 145.212 26.0648 145.359 25.9251C145.505 25.7854 145.593 25.5946 145.602 25.3923C145.602 23.8045 145.602 22.2292 145.602 20.6414C145.602 20.3288 145.602 20.1788 145.202 20.2163C144.802 20.2538 144.89 20.1288 144.902 19.9162C144.915 19.683 144.915 19.4493 144.902 19.2161C144.902 18.9536 144.902 18.816 145.252 18.816C145.602 18.816 145.627 18.9536 145.602 19.2161C145.602 19.4162 145.477 19.7787 145.727 19.7787C145.977 19.7787 145.727 19.4162 145.915 19.2411C145.915 19.4787 146.127 19.4912 146.327 19.4912H148.378C148.503 19.4912 148.715 19.4912 148.715 19.6537C148.715 19.8162 148.503 19.8412 148.365 19.8287C147.89 19.8707 147.41 19.8497 146.94 19.7662C146.89 19.7517 146.837 19.755 146.789 19.7755C146.741 19.796 146.701 19.8325 146.677 19.8787C146.649 19.9475 146.641 20.0229 146.654 20.0961C146.668 20.1692 146.702 20.237 146.753 20.2913C146.84 20.3913 146.915 20.2913 147.015 20.2913C147.115 20.2913 147.378 20.2913 147.34 20.5039C147.253 20.9789 147.59 21.404 147.44 21.8916C147.44 22.0666 147.54 22.1167 147.703 22.1292C147.865 22.1417 148.128 22.3292 148.128 22.6293V23.7545C148.128 24.042 148.128 24.2671 148.565 24.2796C148.778 24.2796 149.04 24.4796 148.828 24.7672C148.615 25.0547 148.828 25.2798 148.553 25.4048C147.84 23.917 147.115 22.4417 146.39 20.9539C146.265 20.6855 146.115 20.4301 145.94 20.1913V20.5539C145.94 22.3542 145.94 24.1545 145.94 25.9549C145.94 26.0799 146.027 26.2424 145.94 26.3425C144.827 26.4425 143.714 26.3425 142.602 26.3425C142.327 26.3675 142.239 26.2549 142.314 26.1424Z" fill="#010101"/>
<path d="M115.209 24.4046C114.909 24.4046 114.734 24.4046 114.984 24.0045C115.02 23.9685 115.049 23.9256 115.069 23.8784C115.088 23.8312 115.099 23.7806 115.099 23.7295C115.099 23.6783 115.088 23.6277 115.069 23.5805C115.049 23.5333 115.02 23.4904 114.984 23.4544C114.984 23.7295 114.909 23.9045 114.609 23.767C114.309 23.6295 114.384 23.767 114.434 23.992C114.484 24.2171 114.596 24.3921 114.234 24.4046C113.871 24.4171 113.796 24.4046 113.796 24.017C113.796 21.5166 113.796 19.0161 113.796 16.5156C113.84 15.7703 113.84 15.023 113.796 14.2777C113.808 14.1638 113.842 14.0534 113.896 13.9526C114.071 15.2029 114.259 16.4531 114.434 17.7784L115.259 23.767C115.259 23.9295 115.259 24.0795 115.259 24.2421C115.259 24.4046 115.309 24.4171 115.209 24.4046Z" fill="#010101"/>
<path d="M166.369 15.4279C166.606 15.2529 166.831 15.4279 167.081 15.4279C167.931 15.4279 168.782 15.4279 169.582 15.4279C169.944 15.4279 170.157 15.3154 170.144 14.9028C170.132 14.4902 170.144 13.8026 170.144 13.2525C170.144 13.04 170.144 12.8899 169.882 12.8149C169.837 12.7783 169.785 12.7516 169.729 12.7365C169.673 12.7214 169.614 12.7183 169.557 12.7274C168.532 12.7274 167.506 12.6399 166.481 12.7274C165.456 12.8149 164.456 12.6149 163.443 12.7274C164.693 12.5524 165.844 12.7274 167.044 12.7274C167.881 12.6649 168.719 12.7274 169.544 12.7274C169.602 12.7198 169.66 12.7236 169.716 12.7387C169.771 12.7537 169.824 12.7796 169.869 12.8149V13.2525C169.557 13.34 169.557 12.965 169.344 12.9024H168.482C168.319 12.9024 168.157 12.9024 168.119 13.115C168.082 13.3275 167.981 13.2525 167.881 13.2525H166.969C166.969 13.2525 166.819 13.2525 166.806 13.2525C166.506 12.6524 165.956 13.09 165.556 12.965C165.556 12.965 165.444 12.965 165.431 12.965C165.131 13.5776 164.593 13.1525 164.181 13.265C164.043 13.265 163.993 13.1775 163.956 13.065C163.918 12.9525 163.718 12.94 163.593 12.9274C163.468 12.9149 163.381 12.9274 163.356 13.1275C163.354 13.2083 163.325 13.2861 163.272 13.3476C163.22 13.4091 163.148 13.4506 163.068 13.465C162.893 13.465 162.931 13.6526 162.931 13.7776V25.4923C162.931 25.5923 162.931 25.7173 162.993 25.7799C163.056 25.8424 163.318 25.7799 163.256 26.0424C163.193 26.305 162.981 26.1424 162.818 26.1674C162.818 21.8041 162.818 17.4908 162.818 13.165C162.818 17.5033 162.818 21.8416 162.818 26.1674C163.178 26.3295 163.58 26.3775 163.968 26.305C164.126 26.2869 164.285 26.2869 164.443 26.305C165.531 26.38 166.606 26.305 167.694 26.305C168.444 26.305 169.194 26.305 169.944 26.38C169.832 26.3861 169.719 26.3861 169.607 26.38H163.068C162.756 26.38 162.656 26.3175 162.656 25.9799C162.656 21.6291 162.656 17.2866 162.656 12.9525C162.656 12.6524 162.718 12.5649 163.031 12.5649H169.832C170.132 12.5649 170.232 12.6399 170.219 12.9525C170.219 13.6859 170.219 14.4236 170.219 15.1654C170.219 15.4654 170.132 15.5279 169.844 15.5279C168.832 15.5279 167.819 15.5279 166.794 15.5279C166.494 15.5279 166.356 15.5279 166.381 15.9155C166.381 16.5281 166.381 17.1657 166.381 17.7534C166.381 18.0034 166.456 18.0659 166.694 18.0534C167.569 18.0534 168.444 18.0534 169.307 18.0534C169.432 18.0534 169.669 17.9034 169.644 18.2159C169.644 18.2159 169.582 18.2159 169.544 18.2159C169.085 18.141 168.616 18.141 168.157 18.2159C167.53 18.2471 166.902 18.2178 166.281 18.1284C166.144 17.9659 166.281 17.8284 166.281 17.6908C166.281 17.1532 166.281 16.6156 166.281 16.078C166.281 16.6281 166.281 17.1907 166.281 17.7409C166.281 17.8075 166.244 17.8075 166.169 17.7409V15.8655C166.119 15.6655 166.281 15.5404 166.369 15.4279Z" fill="#030303"/>
<path d="M153.554 22.6667C153.654 22.7293 153.716 22.9043 153.904 22.7543C154.091 22.6042 154.241 22.7543 154.254 22.9793C154.266 23.2043 154.154 23.5169 154.379 23.767C154.604 24.017 154.379 23.9545 154.241 24.0295C154.218 24.0482 154.199 24.072 154.186 24.0991C154.173 24.1261 154.166 24.1558 154.166 24.1858C154.166 24.2158 154.173 24.2454 154.186 24.2725C154.199 24.2995 154.218 24.3233 154.241 24.3421C154.341 24.4171 154.454 24.5046 154.591 24.3421C154.729 24.1795 154.679 24.0795 154.842 24.167C154.906 24.2131 154.958 24.2755 154.991 24.348C155.024 24.4205 155.037 24.5004 155.029 24.5796C155.029 24.6671 155.029 24.7546 155.029 24.8297C155.029 24.9047 155.029 25.2297 155.329 24.9922C155.422 24.9192 155.536 24.8795 155.654 24.8795C155.772 24.8795 155.887 24.9192 155.979 24.9922C156.127 25.0778 156.297 25.117 156.467 25.1047C156.817 25.1047 157.142 25.1047 157.079 25.5923C157.079 25.8673 157.305 25.7923 157.455 25.7923C158.842 25.7923 160.218 25.7923 161.593 25.7923C161.68 26.0424 161.705 26.2799 161.43 26.43C160.046 26.8376 158.571 26.8169 157.199 26.3706C155.826 25.9244 154.621 25.0734 153.741 23.9295C153.708 23.8823 153.678 23.8321 153.654 23.7795C153.599 23.5707 153.519 23.3693 153.416 23.1793C153.254 23.0043 153.416 22.8293 153.554 22.6667Z" fill="#010101"/>
<path d="M117.522 15.778C117.622 15.778 117.585 16.178 117.835 15.8905C118.085 15.6029 118.235 16.1905 118.147 16.3656C118.049 16.5894 118.018 16.8372 118.06 17.0782C118.06 18.891 118.06 20.7164 118.06 22.5417C118.06 22.9293 117.947 23.0543 117.572 23.0168C117.326 23.0043 117.08 23.0043 116.834 23.0168C116.801 22.9764 116.782 22.9256 116.782 22.873C116.782 22.8205 116.801 22.7697 116.834 22.7293C117.028 22.2609 117.028 21.7348 116.834 21.2665C116.959 19.4286 117.184 17.6033 117.522 15.778Z" fill="#010101"/>
<path d="M85.5786 15.6029C85.5786 15.5404 85.7286 15.4654 85.7161 15.4029C85.6662 14.7829 85.6662 14.16 85.7161 13.54C85.7161 13.3025 85.5911 13.2525 85.391 13.2525C84.7159 13.2525 84.0533 13.2525 83.3906 13.2525C82.7791 13.3066 82.1701 13.123 81.6903 12.7399C81.8529 13.265 81.8154 13.3275 81.3403 13.3275H80.9027C80.6401 13.3275 80.2151 13.19 80.5026 13.7776C80.5329 14.0523 80.4714 14.3292 80.3276 14.5652C80.2276 14.7278 79.9775 14.5652 79.79 14.6278H79.4024C79.1148 14.6278 78.9648 14.6278 78.9898 15.0153C78.9898 15.1278 78.9898 15.3029 78.8398 15.3154C78.6898 15.3279 78.5773 15.3154 78.5647 15.1153C78.5522 14.9153 78.3897 15.1153 78.3022 15.1153C78.2809 15.0887 78.2693 15.0557 78.2693 15.0216C78.2693 14.9875 78.2809 14.9544 78.3022 14.9278C78.3022 14.9278 78.3022 14.9278 78.3022 14.8653C78.3022 14.8028 78.6773 14.7653 78.6148 14.5027L78.6898 14.4277C78.8773 14.4277 78.9398 14.3152 78.9523 14.1527C79.2201 14.0708 79.4447 13.8866 79.5774 13.6401C80.6539 12.8038 81.966 12.3271 83.3281 12.2773C84.1641 12.2198 85.004 12.266 85.8286 12.4148C86.1537 12.4148 86.2537 12.6149 86.2412 12.9274C86.2412 13.7401 86.2412 14.5527 86.2412 15.3654C86.0537 15.778 86.0536 15.778 85.5786 15.6029Z" fill="#010101"/>
<path d="M123.573 17.5033C123.573 17.5033 123.498 17.6533 123.448 17.6658C123.398 17.6783 123.448 17.5908 123.448 17.5408C123.408 17.4021 123.354 17.268 123.286 17.1407C123.292 17.2406 123.292 17.3408 123.286 17.4408C123.286 17.5158 123.286 17.6283 123.211 17.6283C122.923 17.6283 122.66 17.4658 122.36 17.4658C122.06 17.4658 122.248 17.2532 122.248 17.1282V13.8901C122.248 13.34 122.248 13.34 121.673 13.34C120.61 13.34 119.56 13.34 118.497 13.34C118.21 13.34 118.01 13.34 118.06 13.7401C118.11 14.1401 117.872 14.2902 118.172 14.5152C118.069 14.6149 117.998 14.7434 117.969 14.8839C117.94 15.0244 117.954 15.1705 118.01 15.3029C117.912 15.3102 117.818 15.3429 117.737 15.3977C117.656 15.4525 117.59 15.5276 117.547 15.6154L117.81 13.615C117.91 13.44 117.81 13.2525 117.885 13.0774C118.022 13.0774 118.122 13.0774 118.235 12.9774C119.647 12.9774 121.048 12.9774 122.46 12.9774C122.623 12.9774 122.723 13.0774 122.723 13.2525C122.724 13.4402 122.771 13.6248 122.861 13.7901C123.086 15.0028 123.373 16.253 123.573 17.5033Z" fill="#010101"/>
<path d="M159.742 23.4419C159.83 23.692 159.63 23.6045 159.53 23.617C159.43 23.6295 159.192 23.617 159.142 23.842C159.092 24.067 159.255 24.042 159.38 24.0795C159.413 24.0934 159.44 24.1187 159.456 24.1508C159.472 24.1829 159.476 24.2198 159.467 24.2546C159.467 24.3671 159.38 24.4046 159.28 24.4046H157.242C157.067 24.4046 157.042 24.2671 157.042 24.1296C157.029 23.8838 157.029 23.6376 157.042 23.3919C157.042 23.0794 156.942 23.0043 156.642 23.0043C155.954 23.0043 155.992 23.1169 155.992 22.3667C155.962 21.2938 156.008 20.2201 156.129 19.1536C156.129 18.9411 155.942 18.7911 156.042 18.5285C156.142 18.266 156.217 18.4035 156.329 18.5285C156.198 19.3902 156.262 20.2705 156.517 21.104C156.699 21.7332 157.068 22.2923 157.575 22.7075C158.081 23.1226 158.702 23.3744 159.355 23.4294L159.742 23.4419Z" fill="#010101"/>
<path d="M128.287 20.3038C128.419 20.5754 128.475 20.8779 128.449 21.179C128.449 21.5416 128.587 21.6916 128.874 21.6666C129.162 21.6416 129.149 21.8041 129.149 21.9916C129.149 23.1169 129.149 24.2546 129.149 25.3798C129.149 25.7048 129.237 25.8174 129.562 25.8049C130.187 25.8049 130.812 25.8049 131.437 25.8049C131.637 25.8049 131.675 25.6798 131.787 25.5423C132.237 25.0172 131.787 24.4046 132.025 23.8795C132.1 23.8795 132.025 24.017 132.125 24.0545C132.212 24.7422 132.312 25.4298 132.412 26.1174C132.412 26.3175 132.412 26.3675 132.2 26.3675C131.137 26.3675 130.087 26.3675 129.024 26.3675C128.762 26.3675 128.749 26.2424 128.724 26.0549C128.612 24.8922 128.487 23.7295 128.362 22.5543L128.212 20.9164C128.299 20.7164 128.212 20.5039 128.287 20.3038V20.3038Z" fill="#020202"/>
<path d="M96.1555 13.065C95.7152 13.2721 95.2203 13.3334 94.7427 13.24C93.3425 13.24 91.9297 13.24 90.5295 13.24C90.1919 13.24 90.0794 13.34 90.1044 13.6651C90.1294 13.9902 90.1044 14.1902 90.1044 14.4527C90.1044 14.7153 90.1044 14.6403 89.9168 14.6278C89.8938 14.63 89.8706 14.627 89.849 14.6188C89.8273 14.6106 89.8079 14.5975 89.7922 14.5806C89.7764 14.5636 89.7648 14.5433 89.7583 14.5211C89.7517 14.4989 89.7503 14.4755 89.7543 14.4527C89.7232 14.1953 89.7232 13.935 89.7543 13.6776C89.8918 13.215 89.9168 13.215 89.4293 13.2525H89.2667C89.9874 12.6907 90.8565 12.3518 91.7672 12.2773C93.1055 12.0688 94.4755 12.2602 95.7054 12.8274C95.8702 12.8749 96.0234 12.9558 96.1555 13.065V13.065Z" fill="#010101"/>
<path d="M100.556 16.2531C100.587 16.6692 100.587 17.0871 100.556 17.5033H100.669C101.319 17.4408 101.319 17.4408 101.319 18.0909C101.319 19.1536 101.319 20.2163 101.319 21.279C101.319 21.579 101.231 21.6791 100.931 21.6791C100.006 21.6791 100.006 21.6791 100.006 22.6167V24.3671C100.006 24.3671 100.006 24.2921 100.006 24.242C99.7937 24.1545 99.5812 24.117 99.8062 23.792C100.031 23.4669 99.8062 23.2794 99.8062 23.0293C99.9938 21.4665 100.169 19.9037 100.369 18.3409C100.369 17.5033 100.406 16.8657 100.556 16.2531Z" fill="#010101"/>
<path d="M78.2647 15.0778C78.2647 15.2028 78.2647 15.3404 78.2647 15.4654C78.2647 15.5904 78.2647 16.0155 78.6398 15.7404C78.6741 15.7097 78.7187 15.6927 78.7648 15.6927C78.8109 15.6927 78.8554 15.7097 78.8898 15.7404C78.908 15.7888 78.908 15.8421 78.8898 15.8905C78.8898 16.028 78.7648 16.053 78.6648 16.0405C78.3397 16.0405 78.0647 16.278 77.7146 16.153C77.3645 16.028 77.6146 16.303 77.6146 16.3656C77.6146 17.0532 77.6146 17.7533 77.6146 18.4535C77.6146 18.7285 77.6146 18.9786 77.302 19.1411C76.9895 19.3036 77.127 19.7537 77.302 19.8662C77.477 19.9787 77.452 20.0788 77.4645 20.2163C77.4063 20.7593 77.4616 21.3086 77.6271 21.8291C77.6271 21.9541 77.7646 22.2542 77.4395 22.3167C77.352 22.3167 77.377 22.3167 77.4395 22.4292C77.502 22.5417 77.4395 22.8293 77.4395 23.0293C76.7188 21.628 76.4357 20.0426 76.6269 18.4785C76.6926 17.3133 77.087 16.1905 77.7646 15.2403C77.9021 15.2403 77.9271 14.9403 78.1397 15.0778H78.2647Z" fill="#010101"/>
<path d="M137.263 18.0409C138.226 18.0409 139.201 18.0409 140.176 18.0409C140.489 18.0409 140.564 18.1409 140.551 18.441C140.551 19.1661 140.551 19.8912 140.551 20.6164C140.551 20.8539 140.476 20.9289 140.239 20.9289H137.626C137.363 20.9289 137.226 20.9289 137.238 21.279C137.238 21.8916 137.238 22.5292 137.238 23.1043C137.238 23.4169 137.338 23.4669 137.613 23.4669H140.701C140.976 23.4669 141.076 23.5294 141.076 23.8295C141.076 24.5796 141.076 25.3298 141.076 26.0924C141.076 26.3675 140.989 26.43 140.726 26.43C138.438 26.43 136.138 26.43 133.85 26.43C133.575 26.43 133.5 26.355 133.5 26.0924C133.5 21.7041 133.5 17.3408 133.5 12.9399C133.5 12.7399 133.5 12.6149 133.775 12.6149H140.876C140.913 12.6053 140.952 12.6053 140.989 12.6149H140.914C140.708 12.6795 140.491 12.7008 140.276 12.6774C138.126 12.6774 135.988 12.6774 133.838 12.6774C133.675 12.6774 133.738 12.8399 133.713 12.9399C133.713 17.1407 133.713 21.3415 133.713 25.5423C133.8 26.0924 133.8 26.0924 134.363 26.0924H140.276C140.814 26.0924 140.839 26.0924 140.851 25.5173C140.864 24.9422 140.851 24.7296 140.851 24.3421C140.87 24.1801 140.87 24.0165 140.851 23.8545C140.776 23.6544 140.589 23.742 140.451 23.7045C140.314 23.6669 140.114 23.7045 140.164 23.4794H140.576C139.64 23.5543 138.7 23.5543 137.763 23.4794C138.113 23.4794 138.513 23.4794 138.901 23.4794C138.901 23.767 138.689 23.7045 138.551 23.7045C138.095 23.7505 137.635 23.7209 137.188 23.6169C137.145 23.5847 137.11 23.5416 137.088 23.4919C137.038 22.7718 137.038 22.0491 137.088 21.329C137.076 21.2001 137.076 21.0703 137.088 20.9414C137.088 20.6664 137.251 20.4914 137.538 20.5414C138.258 20.6038 138.982 20.6038 139.701 20.5414C140.164 20.5414 140.201 20.5414 140.214 20.0038V18.7535C140.214 18.3034 140.214 18.2659 139.714 18.2534C139.014 18.2534 138.301 18.2534 137.588 18.2534C137.426 18.2159 137.263 18.2284 137.263 18.0409Z" fill="#050505"/>
<path d="M115.209 24.4046L115.309 24.2921C115.397 24.9047 115.484 25.5423 115.584 26.1424C115.584 26.3175 115.584 26.3675 115.372 26.3675C114.296 26.3675 113.234 26.3675 112.159 26.3675C111.958 26.3675 111.908 26.28 111.896 26.1174C111.783 24.8672 111.658 23.617 111.546 22.4292C111.546 22.2792 111.433 22.0917 111.721 22.1417C111.721 22.4542 111.721 22.7293 112.159 22.6668C112.371 22.6668 112.434 22.7668 112.421 22.9543V24.0045C112.387 24.3033 112.434 24.6058 112.559 24.8797C112.611 24.9771 112.631 25.0882 112.618 25.1978C112.604 25.3074 112.558 25.4103 112.484 25.4923C112.359 25.6548 112.484 25.7924 112.659 25.7924H113.446C113.621 25.7924 113.796 25.7924 113.834 26.0174C113.871 26.2424 113.984 26.1299 114.084 26.1299H115.334C115.134 25.5673 115.434 25.0047 115.209 24.4046Z" fill="#020202"/>
<path d="M170.032 26.33V23.8295H169.969V24.2046C169.969 24.3421 169.969 24.4296 169.757 24.4046C169.727 24.3996 169.7 24.3866 169.678 24.367C169.655 24.3474 169.638 24.3221 169.629 24.2937C169.62 24.2653 169.619 24.235 169.626 24.206C169.633 24.1771 169.648 24.1506 169.669 24.1295C169.882 23.892 169.744 23.7545 169.532 23.742C168.653 23.6753 167.769 23.6963 166.894 23.8045C166.719 23.8045 166.594 23.8795 166.756 24.067C166.919 24.2546 166.881 24.2921 166.756 24.3671C166.631 24.4421 166.444 24.3671 166.281 24.3671C166.119 24.3671 166.131 24.2546 166.131 24.1545V21.4415C166.131 21.2415 166.131 21.0415 166.006 20.8664C165.881 20.6914 166.006 20.6289 166.094 20.5289C166.181 20.4289 166.281 20.3538 166.394 20.4289C166.896 20.652 167.45 20.7299 167.994 20.6539C168.5 20.6457 169.005 20.6749 169.507 20.7414H166.569V20.8289H169.694C169.594 20.9915 169.432 20.9039 169.307 20.9039C168.473 20.9039 167.64 20.9039 166.806 20.9039C166.556 20.9039 166.444 20.9039 166.456 21.229C166.456 21.8541 166.456 22.4792 166.456 23.0918C166.456 23.3669 166.531 23.4419 166.794 23.4419C167.831 23.4419 168.882 23.4419 169.919 23.4419C170.219 23.4419 170.319 23.5169 170.307 23.8295C170.307 24.5796 170.307 25.3298 170.307 26.0924C170.269 26.2549 170.282 26.4425 170.032 26.33Z" fill="#030303"/>
<path d="M111.033 12.9024C111.033 13.165 110.958 13.265 110.683 13.2525C110.408 13.24 109.933 13.1025 109.721 13.3275C109.508 13.5526 109.658 14.0151 109.633 14.3652C109.608 14.7153 109.633 15.2654 109.633 15.7155C109.633 15.9655 109.546 16.053 109.308 16.0405H108.508C108.433 15.853 108.67 15.7155 108.508 15.5654C108.345 15.4154 108.508 16.053 108.145 15.953C108.32 15.1028 108.495 14.2527 108.745 13.4525C108.833 13.3775 108.808 13.265 108.833 13.165C108.958 12.6649 108.945 12.6774 109.458 12.7899C109.799 12.8149 110.142 12.8149 110.483 12.7899C110.683 12.7899 110.883 12.7524 111.033 12.9024Z" fill="#010101"/>
<path d="M152.241 25.1047C152.079 25.0047 151.979 24.7421 151.741 25.1047C151.641 25.2297 151.428 25.1047 151.478 24.8797C151.54 24.7015 151.54 24.5077 151.478 24.3296C151.075 24.4602 150.646 24.4903 150.228 24.4171C150.053 24.4171 150.091 24.217 150.091 24.092C150.091 23.4544 150.091 22.8418 150.091 22.1792C150.091 21.9791 150.091 21.7791 149.978 21.604C149.866 21.429 149.891 21.354 150.078 21.3165C150.266 21.279 150.078 21.129 150.078 21.0414C150.109 21.0199 150.146 21.0084 150.184 21.0084C150.222 21.0084 150.259 21.0199 150.291 21.0414C150.966 22.3417 151.628 23.7544 152.241 25.1047Z" fill="#010101"/>
<path d="M130.9 15.0778C130.787 15.0778 130.624 15.0778 130.687 14.8903C130.862 14.3777 130.537 13.9401 130.549 13.465C130.549 13.2525 130.399 13.2525 130.237 13.2525H126.849C126.624 13.2525 126.411 13.4025 126.174 13.2525C125.936 13.1024 126.011 13.2525 125.974 13.3775C125.811 13.74 125.636 14.1151 125.486 14.4902C125.336 14.8653 125.336 14.9028 125.236 14.9403C125.411 14.2151 125.574 13.4775 125.736 12.7524C125.737 12.7172 125.746 12.6827 125.762 12.6511C125.777 12.6196 125.8 12.5917 125.827 12.5692C125.854 12.5468 125.885 12.5304 125.919 12.521C125.953 12.5116 125.989 12.5095 126.024 12.5148H130.449C130.449 12.5148 130.449 12.5148 130.549 12.5148C130.046 12.5585 129.54 12.5585 129.037 12.5148H130.387C130.44 12.5329 130.497 12.5329 130.549 12.5148C130.741 13.3572 130.858 14.2148 130.9 15.0778Z" fill="#010101"/>
<path d="M116.772 21.254C116.905 21.4301 116.993 21.6362 117.028 21.8542C117.062 22.0721 117.043 22.2953 116.972 22.5042C116.884 22.6689 116.82 22.8459 116.784 23.0293C116.747 23.3533 116.747 23.6805 116.784 24.0045C116.784 24.1545 116.784 24.342 116.572 24.3295C116.359 24.317 116.572 24.7296 116.572 24.7796C116.665 25.0596 116.665 25.3623 116.572 25.6423C116.572 25.9048 116.672 25.8173 116.747 25.7798C116.964 25.6719 117.204 25.6157 117.447 25.6157C117.69 25.6157 117.93 25.6719 118.147 25.7798C118.376 25.8054 118.606 25.8054 118.835 25.7798C119.124 25.7358 119.42 25.7615 119.697 25.8548C119.772 26.2299 119.697 26.3674 119.247 26.3549C118.31 26.3549 117.384 26.3549 116.459 26.3549C116.309 26.3549 116.122 26.4299 116.159 26.1424C116.347 24.7671 116.534 23.3919 116.734 22.0166C116.884 22.0166 116.734 21.9166 116.734 21.8666C116.696 21.6624 116.709 21.4519 116.772 21.254V21.254Z" fill="#030303"/>
<path d="M98.5685 17.0907C98.5346 16.9961 98.4682 16.9166 98.3813 16.8662C98.2943 16.8158 98.1923 16.7979 98.0934 16.8157C97.7683 16.8157 97.5683 16.7281 97.6058 16.3531C97.6058 16.228 97.6058 16.0405 97.4433 16.053C97.0182 16.053 97.0807 15.7905 97.0807 15.5404C97.0807 15.2904 97.0807 15.1903 97.0807 15.0153C97.0807 14.8403 97.0057 14.6027 96.7181 14.6402C96.4306 14.6778 96.3555 14.5402 96.368 14.2902C96.4015 14.1972 96.4015 14.0956 96.368 14.0026C96.2055 13.8151 96.218 13.6776 96.368 13.54C96.5181 13.4025 96.368 13.3275 96.368 13.2275C97.4423 13.9745 98.2104 15.0845 98.531 16.3531C98.5775 16.5338 98.6109 16.7176 98.631 16.9032C98.7685 17.0032 98.6435 17.0532 98.5685 17.0907Z" fill="#010101"/>
<path d="M99.7062 22.9293C99.7062 23.2294 100.019 23.5169 99.7062 23.8295C99.3936 24.142 99.7062 24.0045 99.8187 23.9545C99.9312 23.9045 99.8812 24.0795 99.8937 24.142C99.7744 24.209 99.6783 24.3106 99.618 24.4334C99.5577 24.5561 99.5361 24.6944 99.5562 24.8297C99.7062 24.8297 99.6687 24.6046 99.7937 24.6671C99.9187 24.7297 99.7937 24.8422 99.7937 24.9422C99.7937 25.8049 99.7937 25.8049 100.644 25.8049C101.206 25.8049 101.769 25.8049 102.332 25.8049C102.569 25.8049 102.669 25.8049 102.644 25.4798C102.675 24.8634 102.675 24.2458 102.644 23.6295C102.644 23.792 102.844 23.792 102.969 23.792C102.894 24.5671 102.819 25.3423 102.757 26.1299C102.757 26.355 102.632 26.3675 102.457 26.3675H99.5187C99.3186 26.3675 99.2311 26.3675 99.2686 26.0924C99.4186 25.0047 99.5562 23.9795 99.7062 22.9293Z" fill="#030303"/>
<path d="M80.5901 25.9799C80.7037 25.8775 80.8401 25.8037 80.988 25.7646C81.1358 25.7255 81.2909 25.7221 81.4402 25.7548C81.5646 25.7737 81.691 25.7737 81.8153 25.7548C82.603 25.7548 83.3781 25.7548 84.1658 25.7548C84.4408 25.7548 84.5908 25.8298 84.5408 26.1174C84.4908 26.4049 84.5408 26.6425 84.9534 26.505H85.0659C83.5565 26.8205 81.9855 26.6362 80.5901 25.9799V25.9799Z" fill="#010101"/>
<path d="M153.554 22.6667C153.354 23.0668 153.754 23.4294 153.629 23.8294C152.904 22.8437 152.471 21.674 152.379 20.4538C152.159 19.0151 152.359 17.5437 152.954 16.2155C153.154 16.2155 152.954 16.5906 153.229 16.6156C153.329 16.6156 153.229 16.7406 153.129 16.7781C153.029 16.8156 152.841 17.0282 152.854 17.3032C152.866 17.5783 152.604 17.8158 152.979 18.0033C152.741 18.5284 152.979 19.1161 152.804 19.6412C152.703 19.9457 152.703 20.2743 152.804 20.5788C152.809 20.6203 152.809 20.6624 152.804 20.7039C152.804 21.0164 152.604 21.3415 152.891 21.6165C153.179 21.8916 153.004 21.9041 153.066 22.0541C153.129 22.2041 153.066 22.2041 153.191 22.1541C153.641 21.9416 153.541 22.2792 153.541 22.5042C153.541 22.7292 153.541 22.6167 153.541 22.6667H153.554Z" fill="#030303"/>
<path d="M81.9529 22.6543C81.9112 22.6679 81.8752 22.6949 81.8503 22.731C81.8255 22.7672 81.8132 22.8105 81.8154 22.8543C81.8154 23.0668 81.6653 23.2669 81.5028 23.1419C81.2448 23.0097 80.9505 22.9658 80.6651 23.0168C80.4151 23.0168 80.3526 22.9043 80.3526 22.6793C80.3526 22.0041 80.3526 21.3415 80.3526 20.6789C80.3452 20.5844 80.3663 20.4899 80.4131 20.4074C80.4598 20.325 80.5302 20.2584 80.6151 20.2163C80.6151 20.2163 80.6151 20.2163 80.7151 20.2163C80.8471 21.1434 81.2823 22.0007 81.9529 22.6543Z" fill="#010101"/>
<path d="M131.925 23.0168C131.25 23.0168 131.25 23.0168 131.25 22.4042C131.25 21.304 131.25 20.2163 131.25 19.1286C131.252 18.6064 131.155 18.0886 130.962 17.6033C130.881 17.2242 130.881 16.8322 130.962 16.4531L131.1 16.3906L131.7 20.6414C131.7 20.9539 131.775 21.2665 131.8 21.579C131.833 21.999 131.891 22.4165 131.975 22.8293V22.8293C131.975 22.8293 132.012 22.9668 131.925 23.0168Z" fill="#020202"/>
<path d="M88.3791 14.1276C88.4773 14.1853 88.5516 14.2764 88.5883 14.3842C88.625 14.4921 88.6218 14.6096 88.5791 14.7152C88.1665 15.3442 87.9691 16.09 88.0165 16.8406C88.0165 17.4658 87.8915 17.5783 87.2414 17.3782C86.9788 17.2907 87.0288 17.3782 87.1538 17.5158C87.2789 17.6533 87.1538 17.7283 86.9663 17.6908C87.044 16.3825 87.5391 15.1337 88.3791 14.1276V14.1276Z" fill="#020202"/>
<path d="M105.82 13.24C105.695 13.24 105.57 13.065 105.457 13.24C105.457 12.9899 105.22 13.065 105.07 13.065C103.944 13.065 102.819 13.065 101.694 13.065C101.419 13.065 101.269 13.1275 101.219 13.415C101.183 13.5865 101.119 13.7511 101.031 13.9026C100.944 14.0652 100.906 13.9026 100.844 13.9026C100.844 12.6524 100.844 12.6524 102.169 12.6524H105.082C105.745 12.5649 105.745 12.5649 105.82 13.24Z" fill="#040404"/>
<path d="M142.314 26.1424C142.314 26.3924 142.552 26.3174 142.689 26.3174H145.802C144.64 26.4424 143.489 26.3174 142.327 26.3174C142.177 26.3174 142.127 26.2424 142.139 26.1049C142.145 26.0008 142.145 25.8964 142.139 25.7923C142.139 21.529 142.139 17.2532 142.139 12.9899C142.139 12.6148 142.214 12.5023 142.614 12.5023C143.964 12.5023 145.315 12.5023 146.665 12.5023C146.821 12.466 146.984 12.466 147.14 12.5023L147.078 12.5648C146.878 12.6899 146.677 12.5648 146.49 12.5648H142.527C142.527 12.5648 142.527 12.6398 142.527 12.5648C142.527 12.4898 142.527 12.5648 142.527 12.5648C143.927 12.5148 145.327 12.5148 146.727 12.5648C146.602 12.9149 146.315 12.7899 146.077 12.7649C144.875 12.6773 143.667 12.6773 142.464 12.7649V13.1399C142.302 13.0274 142.464 12.8649 142.327 12.7774V25.7798C142.227 25.9048 142.189 26.0424 142.314 26.1424Z" fill="#060606"/>
<path d="M90.2919 26.0549C90.6656 26.1357 91.0473 26.1735 91.4296 26.1674C92.5254 26.0945 93.6255 26.1154 94.7177 26.2299C94.9303 26.2299 95.1553 25.9924 95.3554 26.2299C94.5341 26.5617 93.6539 26.7228 92.7683 26.7035C91.8828 26.6841 91.0104 26.4847 90.2044 26.1174C90.2134 26.1011 90.226 26.087 90.2411 26.0762C90.2562 26.0654 90.2736 26.0581 90.2919 26.0549Z" fill="#010101"/>
<path d="M137.263 18.0409C137.263 18.1534 137.426 18.1284 137.526 18.1409C137.751 18.6535 137.601 18.9661 137.138 18.9411C136.676 18.9161 136.713 18.741 136.701 18.466C136.701 17.9659 136.701 17.4533 136.701 16.9532C136.72 16.62 136.682 16.2859 136.588 15.9655C136.544 15.8272 136.544 15.6787 136.588 15.5404C136.676 15.1028 137.001 14.9903 137.363 15.2779V15.3529C137.375 15.3783 137.382 15.406 137.382 15.4342C137.382 15.4623 137.375 15.4901 137.363 15.5154C137.226 15.5779 137.263 15.7155 137.263 15.8155C137.251 16.5656 137.251 17.3033 137.263 18.0409Z" fill="#020202"/>
<path d="M122.798 13.7526C122.51 13.59 122.798 13.24 122.535 13.0524C122.427 12.9756 122.292 12.9442 122.16 12.9649H118.41C118.278 12.9442 118.144 12.9756 118.035 13.0524C118.035 13.34 117.922 12.9899 117.86 13.0524C117.785 12.6774 117.86 12.5273 118.335 12.5398C119.585 12.5398 120.91 12.5398 122.185 12.5398C122.51 12.5398 122.66 12.6274 122.698 12.9524C122.714 13.221 122.747 13.4883 122.798 13.7526Z" fill="#0D0D0D"/>
<path d="M142.402 12.9024C142.527 12.7649 142.702 12.8149 142.852 12.8149H146.277C146.44 12.8149 146.602 12.8149 146.728 12.7274C146.853 12.6399 147.015 12.7274 147.14 12.7274C147.727 12.7128 148.312 12.806 148.865 13.0024C148.757 13.1456 148.61 13.2547 148.442 13.3167C148.273 13.3788 148.091 13.3912 147.915 13.3525C147.49 13.3525 147.053 13.3525 146.665 13.3525C146.277 13.3525 146.027 13.515 145.877 13.0649C145.877 12.9649 145.627 13.0649 145.502 13.0649L142.402 12.9024Z" fill="#020202"/>
<path d="M111.033 12.9024H109.646C109.546 12.9024 109.408 12.9024 109.358 12.9024C108.933 12.5023 108.995 12.9024 108.92 13.1524C108.845 13.4025 108.92 13.4275 108.758 13.465C108.595 13.5025 108.758 13.465 108.758 13.465C108.858 12.6523 108.858 12.6523 109.658 12.6523C110.908 12.6523 112.084 12.6523 113.309 12.6523C113.721 12.6523 113.846 12.8024 113.809 13.1774C113.696 13.1024 113.809 12.9024 113.559 12.9149C113.446 12.7149 113.246 12.7899 113.084 12.7899C113.259 12.7899 113.459 12.7149 113.596 12.9149V13.0024C113.596 13.1649 113.834 13.4025 113.596 13.49C113.486 13.511 113.371 13.4941 113.271 13.4419C113.171 13.3897 113.092 13.3053 113.046 13.2024C112.959 13.0024 112.821 13.0024 112.671 13.0024L111.033 12.9024Z" fill="#030303"/>
<path d="M87.5914 23.0168C87.729 22.8668 87.8665 22.7543 88.054 22.9543C88.2416 23.1543 88.054 22.9543 88.129 22.9543C88.9042 22.8543 88.7416 23.4044 88.7166 23.817C88.6916 24.2295 88.8792 24.5671 88.5541 24.8797C88.0787 24.3738 87.7239 23.7668 87.5164 23.1043C87.5164 23.1043 87.5164 23.0418 87.5914 23.0168Z" fill="#010101"/>
<path d="M56.4981 36.2568C56.4981 36.4818 56.4981 36.4944 56.2981 36.3693Z" fill="#8A6482"/>
<path d="M86.9663 17.6908C87.009 17.6782 87.0481 17.6558 87.0807 17.6254C87.1132 17.595 87.1383 17.5575 87.1538 17.5158C87.3039 17.7909 87.0038 17.9909 87.0163 18.2659C87.1788 18.2659 87.1663 18.0784 87.3414 18.0284C87.4047 19.2277 87.3419 20.4304 87.1538 21.6166C87.1538 21.6166 87.1538 21.6166 87.0663 21.6166C86.8082 20.3234 86.7744 18.9955 86.9663 17.6908V17.6908Z" fill="#020202"/>
<path d="M160.143 15.4404C160.294 15.3952 160.449 15.3617 160.605 15.3404C161.218 15.3404 161.218 15.3404 161.218 14.7028C161.218 14.4027 161.218 14.0902 161.218 13.7901C161.218 13.49 161.118 13.315 161.48 13.2025C161.843 13.09 161.555 12.7024 161.293 12.6399C161.03 12.5774 161.03 12.5524 161.205 12.3898C161.568 12.3898 161.655 12.5399 161.655 12.8774C161.655 13.8151 161.655 14.7528 161.655 15.7405L160.143 15.4404Z" fill="#030303"/>
<path d="M150.516 13.6526C150.516 13.7651 150.391 13.8401 150.391 13.9151C150.391 13.9901 150.391 14.3652 150.653 14.2527C150.916 14.1401 150.903 14.4652 151.066 14.5152C151.066 14.7153 150.853 14.5152 150.741 14.5902H150.491C149.728 14.6652 149.666 14.5902 149.741 13.9026C149.761 13.8125 149.759 13.7189 149.736 13.6295C149.713 13.54 149.67 13.4572 149.609 13.3878C149.548 13.3184 149.471 13.2643 149.386 13.23C149.3 13.1956 149.207 13.1819 149.115 13.19C148.753 13.19 148.915 12.9774 148.853 12.8399C149.462 12.9814 150.03 13.2592 150.516 13.6526Z" fill="#020202"/>
<path d="M78.3522 24.2296C78.5272 24.142 78.5647 24.042 78.3522 23.9295C78.3415 23.9201 78.333 23.9086 78.3272 23.8956C78.3214 23.8827 78.3183 23.8687 78.3183 23.8545C78.3183 23.8403 78.3214 23.8263 78.3272 23.8133C78.333 23.8004 78.3415 23.7889 78.3522 23.7795C78.3522 23.7795 78.4397 23.7795 78.4647 23.7795C78.4897 23.7795 78.8773 23.917 78.9273 24.0045C79.1648 24.4796 79.5774 24.4296 79.99 24.4421C80.1275 24.4421 80.3526 24.3671 80.3526 24.6171C80.3526 24.8672 80.14 24.7672 79.99 24.7422C79.84 24.7172 79.6399 24.8672 79.7024 25.1047C79.765 25.3423 79.865 25.4048 79.84 25.5923C79.2538 25.2477 78.7468 24.7833 78.3522 24.2296V24.2296Z" fill="#020202"/>
<path d="M98.5685 17.0907L98.656 16.9032C98.9658 18.2135 99.0336 19.5693 98.856 20.9039C98.8251 21.4834 98.6984 22.0537 98.481 22.5918C98.581 22.1542 98.3684 21.6916 98.6935 21.279C98.781 21.179 98.6935 20.9165 98.6935 20.7414V18.516C98.5892 18.0485 98.5472 17.5693 98.5685 17.0907V17.0907Z" fill="#050505"/>
<path d="M120.685 17.1782C120.949 17.2608 121.177 17.4282 121.336 17.6543C121.494 17.8805 121.573 18.1527 121.56 18.4285C121.56 18.766 121.773 19.1661 121.385 19.4787C121.385 19.4787 121.548 19.8287 121.385 20.0163L120.698 17.5158C120.654 17.4713 120.628 17.4119 120.626 17.3494C120.623 17.2869 120.645 17.2259 120.685 17.1782V17.1782Z" fill="#030303"/>
<path d="M95.4304 26.2549C95.4304 26.1674 95.5054 26.0924 95.4304 26.0299C95.3554 25.9674 95.2178 25.8173 95.4304 25.7298C95.6429 25.6423 95.5304 25.5673 95.5429 25.4673C95.5429 25.0047 95.9305 24.7796 96.3181 24.9922C96.5613 25.1002 96.8284 25.1433 97.0932 25.1172C96.6594 25.648 96.0823 26.0429 95.4304 26.2549V26.2549Z" fill="#020202"/>
<path d="M111.021 17.5033C111.096 17.5033 111.233 17.2282 111.246 17.5033C111.241 18.0191 111.428 18.5183 111.771 18.9035C111.835 18.9834 111.87 19.0826 111.87 19.1849C111.87 19.2871 111.835 19.3863 111.771 19.4662C111.633 19.5912 111.433 19.5537 111.358 19.2786C111.273 19.5172 111.273 19.7777 111.358 20.0163C111.428 20.1265 111.466 20.2544 111.466 20.3851C111.466 20.5157 111.428 20.6436 111.358 20.7539C111.196 19.6787 111.096 18.6035 111.021 17.5033Z" fill="#030303"/>
<path d="M84.3533 23.4419C84.3533 23.5669 84.5659 23.4419 84.6534 23.5794C84.7409 23.717 84.5159 23.7045 84.4033 23.692C84.0158 23.6044 83.6532 23.8295 83.2531 23.817C82.8531 23.8045 82.778 23.6545 82.5155 23.692C82.2529 23.7295 82.5155 23.6044 82.5155 23.5544C82.5155 23.5044 82.5155 23.1919 82.5155 23.0043C83.0947 23.2656 83.7185 23.4141 84.3533 23.4419Z" fill="#030303"/>
<path d="M111.721 22.1417C111.533 22.1417 111.558 22.3042 111.546 22.4292C111.466 22.1963 111.437 21.9492 111.458 21.7041C111.566 21.5861 111.639 21.4411 111.67 21.2846C111.7 21.1282 111.688 20.9663 111.633 20.8164C111.714 20.8655 111.803 20.8994 111.896 20.9164C112.409 20.8164 112.446 21.1165 112.434 21.5165C112.421 21.9166 112.434 22.0666 111.971 21.8916C111.783 21.8166 111.721 21.9666 111.721 22.1417Z" fill="#010101"/>
<path d="M122.198 23.1793C122.36 23.3043 122.423 23.4919 122.673 23.5669C122.923 23.6419 123.098 24.3295 122.798 24.6796C122.798 24.6796 122.686 24.7921 122.798 24.8921C122.912 25.0305 122.981 25.2002 122.997 25.3787C123.012 25.5572 122.974 25.7363 122.886 25.8923C122.61 25.0047 122.385 24.092 122.198 23.1793Z" fill="#020202"/>
<path d="M161.405 26.4299C161.481 26.344 161.535 26.2414 161.563 26.1306C161.591 26.0198 161.593 25.9039 161.568 25.7923C161.568 25.2172 161.568 24.6421 161.568 24.067C161.568 23.8169 161.568 23.7169 161.243 23.6919C160.918 23.6669 160.605 23.9045 160.418 23.4919H160.318C160.318 23.4919 160.318 23.6794 160.118 23.6544C159.917 23.6294 160.118 23.4794 160.118 23.4294H160.03C160.602 23.3712 161.167 23.2582 161.718 23.0918V26.1799C161.668 26.3799 161.58 26.4424 161.405 26.4299Z" fill="#040404"/>
<path d="M107.633 19.0036C107.633 19.1786 107.633 19.3412 107.833 19.4037C108.033 19.4662 108.17 19.4912 108.183 19.6037C108.195 19.7162 108.583 19.9538 108.32 20.1913C108.058 20.4289 107.708 20.4539 107.483 20.1913C107.446 20.1472 107.398 20.1128 107.345 20.0913C107.352 19.7335 107.415 19.379 107.533 19.0411C107.533 19.0411 107.595 18.9536 107.633 19.0036Z" fill="#020202"/>
<path d="M161.068 12.3773C160.855 12.4773 160.643 12.6524 160.418 12.3773C160.143 12.6774 159.842 12.3023 159.517 12.3773L159.767 12.5024C159.705 12.5024 159.655 12.5024 159.63 12.5024C159.192 12.3148 158.717 12.5774 158.255 12.3773C158.02 12.3332 157.778 12.3826 157.58 12.5149C157.405 12.6024 157.317 12.5149 157.179 12.5149C158.441 12.1279 159.782 12.0804 161.068 12.3773V12.3773Z" fill="#060606"/>
<path d="M124.261 19.6662V20.2163C124.036 20.2163 123.748 20.3538 123.586 20.0912C123.423 19.8287 123.286 19.5911 123.586 19.3661C123.736 19.2786 123.673 19.2036 123.586 19.0535C123.498 18.9035 123.586 18.616 123.698 18.3784L124.061 20.0662L124.261 19.6662Z" fill="#020202"/>
<path d="M103.557 18.2284L103.769 17.1282C103.95 17.6557 104.076 18.2003 104.145 18.7535C103.919 18.5535 103.719 18.5785 103.719 18.8911C103.719 19.1597 103.626 19.4201 103.457 19.6287C103.42 19.1596 103.454 18.6876 103.557 18.2284V18.2284Z" fill="#EEEEEE"/>
<path d="M104.582 19.6162C105.032 19.4537 105.095 19.4912 105.107 19.9163C105.155 20.3697 105.095 20.828 104.932 21.254C104.932 21.254 104.87 21.254 104.845 21.254C104.726 21.0171 104.661 20.7564 104.657 20.4914C104.638 20.4137 104.638 20.3328 104.655 20.2548C104.672 20.1768 104.707 20.1038 104.757 20.0413C104.76 20.0069 104.753 19.9723 104.738 19.9414C104.723 19.9106 104.699 19.8845 104.67 19.8663C104.632 19.7912 104.682 19.6787 104.582 19.6162Z" fill="black"/>
<path d="M141.001 12.6523C141.064 13.2466 141.064 13.8459 141.001 14.4402C141.07 14.7869 141.07 15.1437 141.001 15.4904C139.939 15.4904 138.876 15.4904 137.813 15.4904C137.651 15.4904 137.501 15.4904 137.351 15.4904C137.351 15.2028 137.663 15.2778 137.838 15.2778H140.339C140.901 15.2778 140.926 15.2778 140.939 14.6902C140.951 14.1026 140.939 13.59 140.939 13.0399C140.939 13.0399 140.939 12.9274 140.939 12.8774C140.951 12.8257 140.977 12.7783 141.014 12.7399L141.001 12.6523Z" fill="#090909"/>
<path d="M151.466 18.8286C151.466 18.691 151.466 18.541 151.466 18.416C151.466 18.291 151.466 18.2785 151.466 18.2034C151.466 18.1284 151.228 17.7284 151.553 17.6408C151.878 17.5533 151.903 17.3908 151.828 17.1407C151.978 17.1407 151.991 17.2408 152.066 17.2658C152.027 17.835 151.818 18.3794 151.466 18.8286V18.8286Z" fill="#030303"/>
<path d="M90.2919 26.0549L90.2044 26.1424C89.8719 26.0447 89.5676 25.8689 89.3167 25.6298C89.7918 25.1172 90.1669 25.4048 90.492 25.8673C90.4794 25.9174 90.2669 25.8798 90.2919 26.0549Z" fill="#030303"/>
<path d="M109.733 21.7291C109.658 21.4421 109.658 21.1408 109.733 20.8539C109.733 20.8539 109.733 20.7289 109.733 20.7164C109.733 20.7039 109.383 20.5038 109.496 20.2788C109.608 20.0538 109.858 20.0288 110.096 20.0413C110.019 20.6124 109.898 21.1767 109.733 21.7291Z" fill="#030303"/>
<path d="M157.742 16.053C157.759 15.8223 157.832 15.5992 157.955 15.4029C157.972 15.3552 158 15.3122 158.037 15.2773C158.074 15.2424 158.118 15.2166 158.167 15.2021C158.216 15.1875 158.267 15.1845 158.317 15.1933C158.367 15.2021 158.414 15.2225 158.455 15.2529C158.738 15.3501 159.032 15.4131 159.33 15.4404C158.763 15.5295 158.222 15.7384 157.742 16.053V16.053Z" fill="#030303"/>
<path d="M154.942 13.6776C154.842 13.9526 155.017 14.2402 154.942 14.5152C154.867 14.7903 154.867 14.7528 154.754 14.6527C154.429 14.3527 154.191 14.6527 153.916 14.6527C154.204 14.2752 154.55 13.946 154.942 13.6776V13.6776Z" fill="#060606"/>
<path d="M97.0807 25.0922C97.0936 25.0219 97.0936 24.9499 97.0807 24.8797C96.9682 24.5546 97.0807 24.1045 97.4183 24.042C97.7558 23.9795 97.7558 24.167 97.9059 23.9795C97.7175 24.4074 97.4355 24.7877 97.0807 25.0922Z" fill="#040404"/>
<path d="M80.7151 20.2163H80.6151C80.0775 19.6287 80.6151 19.0536 80.6151 18.4785C80.6151 18.2784 80.5401 17.9909 80.8277 17.8658C80.6719 18.6392 80.634 19.4316 80.7151 20.2163V20.2163Z" fill="#030303"/>
<path d="M81.1402 17.2532C81.0027 17.0532 81.1402 16.7781 80.9027 16.5781C80.6651 16.3781 80.9777 16.3906 81.0527 16.303C81.0947 16.2626 81.1507 16.2399 81.209 16.2399C81.2673 16.2399 81.3233 16.2626 81.3653 16.303L81.6778 16.5156L81.1402 17.2532Z" fill="#040404"/>
<path d="M150.278 20.9915H150.028C150.141 20.7789 150.028 20.6789 149.841 20.5789C149.653 20.4789 149.666 20.2288 149.691 20.0288C149.716 19.8287 149.866 19.8037 150.041 19.8538C150.069 19.8643 150.1 19.8643 150.128 19.8538C150.278 19.5787 150.278 19.5662 150.553 19.7412C150.391 19.9663 149.953 19.9413 149.941 20.2413C150.003 20.5112 150.117 20.7661 150.278 20.9915V20.9915Z" fill="#0C0C0C"/>
<path d="M156.642 17.5033C156.267 17.2907 156.104 16.9782 156.279 16.7907C156.454 16.6031 156.592 16.5156 156.717 16.7907C156.842 17.0657 156.942 16.7907 157.054 16.7907L156.642 17.5033Z" fill="#020202"/>
<path d="M156.867 12.6399C156.867 12.9775 156.617 13.3275 156.317 13.24C156.017 13.1525 155.817 13.3025 155.567 13.24C155.952 12.9489 156.395 12.7443 156.867 12.6399V12.6399Z" fill="#050505"/>
<path d="M103.557 18.2284L103.457 19.6162L103.282 20.9414C103.144 20.5538 102.957 20.2538 103.282 19.7787C103.607 19.3036 103.407 18.8035 103.444 18.3034L103.557 18.2284Z" fill="#060606"/>
<path d="M121.398 20.0037C121.623 19.8912 121.81 19.7412 121.748 20.2288C121.685 20.7164 121.923 20.9539 121.748 21.3165C121.582 20.8937 121.464 20.4532 121.398 20.0037V20.0037Z" fill="#050505"/>
<path d="M148.953 26.3174H152.704C152.34 26.3864 151.967 26.3864 151.603 26.3174C150.721 26.3716 149.836 26.3716 148.953 26.3174V26.3174Z" fill="#171717"/>
<path d="M86.0286 23.2794C85.6911 23.4294 85.4035 23.7544 84.9659 23.6169C84.9248 23.613 84.886 23.5965 84.8546 23.5697C84.8233 23.5428 84.801 23.5069 84.7909 23.4669C84.7909 23.3794 84.9284 23.4669 84.9784 23.3669L85.8536 23.1668C85.9536 23.1418 86.0911 23.0543 86.0286 23.2794Z" fill="#060606"/>
<path d="M100.831 14.1277C101.206 14.0402 101.306 14.3027 101.381 14.5778C101.181 14.6903 100.981 14.8403 100.756 14.6403C100.731 14.4657 100.757 14.2877 100.831 14.1277V14.1277Z" fill="#030303"/>
<path d="M107.633 19.0036H107.52C107.603 18.2672 107.75 17.5394 107.958 16.8282C107.988 16.8485 108.012 16.8767 108.028 16.9098C108.043 16.9428 108.049 16.9795 108.045 17.0157C107.92 17.6658 107.77 18.341 107.633 19.0036Z" fill="#0A0A0A"/>
<path d="M137.351 15.4279H140.539C140.689 15.4279 140.864 15.4279 141.001 15.4904C139.751 15.4904 138.501 15.4904 137.351 15.4904V15.4279Z" fill="black"/>
<path d="M120.36 18.7535C120.359 18.4571 120.286 18.1653 120.148 17.9033C120.06 17.7908 120.148 17.7283 120.21 17.6408C120.317 17.5085 120.417 17.3708 120.51 17.2282C120.51 17.2282 120.51 17.2282 120.51 17.2282L120.36 18.7535Z" fill="#050505"/>
<path d="M152.079 17.2657C152.079 17.0782 152.079 16.8907 152.079 16.7031C152.079 16.5156 152.079 16.6031 151.866 16.4781C152.116 16.1905 151.741 15.8405 151.978 15.5529C152.182 16.1012 152.216 16.6976 152.079 17.2657V17.2657Z" fill="#090909"/>
<path d="M86.0286 26.1549V23.3169C86.0849 24.2621 86.0849 25.2098 86.0286 26.1549V26.1549Z" fill="#060606"/>
<path d="M153.779 14.8028C153.779 14.9278 153.916 15.0403 154.079 14.9278C154.241 14.8153 154.216 14.9278 154.179 15.0153C154.141 15.1029 154.291 15.2029 154.179 15.1904C153.909 15.2152 153.645 15.2916 153.404 15.4154C153.479 15.1845 153.607 14.9745 153.779 14.8028Z" fill="#0B0B0B"/>
<path d="M81.8403 16.3155C81.7403 16.1905 81.9279 16.0405 81.8403 15.903C81.7528 15.7654 81.8403 15.7654 81.9904 15.7279C82.1404 15.6904 82.3279 15.7279 82.428 15.903L81.8403 16.3155Z" fill="#060606"/>
<path d="M126.461 22.2291C126.249 21.9041 126.461 21.579 126.461 21.2415C126.461 20.9039 126.624 21.2415 126.711 21.2415C126.661 21.5781 126.577 21.909 126.461 22.2291V22.2291Z" fill="#040404"/>
<path d="M121.723 21.3665C121.86 21.4415 121.81 21.7041 122.098 21.6666C122.385 21.6291 122.185 22.0166 122.173 22.2167C122.023 22.2167 122.173 22.0041 122.023 21.9666V22.4292C121.88 22.0884 121.78 21.7315 121.723 21.3665Z" fill="#050505"/>
<path d="M56.6231 36.3818C56.6231 36.5193 56.6231 36.5568 56.4856 36.5443C56.3481 36.5318 56.1855 36.6194 56.2981 36.3693C56.3731 36.3693 56.5106 36.4943 56.4481 36.2693" fill="#F3E9F3"/>
<path d="M157.054 16.7531C157.048 16.6365 157.048 16.5197 157.054 16.4031C157.054 16.078 157.242 15.9905 157.53 16.203L157.054 16.7531Z" fill="#060606"/>
<path d="M169.582 18.2159H169.682C169.719 18.8864 169.719 19.5584 169.682 20.2288C169.494 19.9038 169.619 19.5537 169.594 19.2161C169.569 18.8786 169.582 18.5535 169.582 18.2159Z" fill="#020202"/>
<path d="M104.845 21.254H104.932C105.087 21.4888 105.178 21.7605 105.195 22.0416L105.095 22.2417C104.969 21.9246 104.885 21.5926 104.845 21.254Z" fill="#0B0B0B"/>
<path d="M87.0663 21.6166H87.1538C87.4164 21.9166 87.2414 22.2792 87.3164 22.6043C87.1705 22.2941 87.0856 21.9588 87.0663 21.6166V21.6166Z" fill="#0C0C0C"/>
<path d="M79.4774 13.59C79.4774 14.0401 79.1774 14.0651 78.8523 14.1026C79.0246 13.892 79.2371 13.7177 79.4774 13.59V13.59Z" fill="#060606"/>
<path d="M131.925 23.0168V22.8293C132.028 23.2384 132.087 23.6576 132.1 24.0795C132.067 24.0642 132.04 24.0392 132.022 24.0078C132.004 23.9765 131.996 23.9404 132 23.9045C131.987 23.5919 131.95 23.3044 131.925 23.0168Z" fill="#111111"/>
<path d="M131.95 22.8293C131.792 22.4327 131.732 22.0038 131.775 21.579C131.889 21.9861 131.948 22.4066 131.95 22.8293V22.8293Z" fill="#111111"/>
<path d="M77.5895 23.0918C78.0896 23.0918 77.7896 23.4544 77.9021 23.6419C77.7525 23.4884 77.6448 23.2989 77.5895 23.0918Z" fill="#171717"/>
<path d="M85.5786 26.4925C85.6836 26.33 85.8432 26.2103 86.0286 26.1549C86.1162 26.5675 85.7786 26.43 85.5786 26.4925Z" fill="#060606"/>
<path d="M78.8523 14.1027C78.8523 14.2277 78.9773 14.3527 78.8523 14.4527C78.7273 14.5527 78.6773 14.3652 78.5772 14.3777C78.6373 14.2591 78.7337 14.1628 78.8523 14.1027Z" fill="#060606"/>
<path d="M78.5147 14.4527C78.7272 14.8403 78.2772 14.6777 78.2021 14.8153C78.2706 14.6677 78.3788 14.5422 78.5147 14.4527V14.4527Z" fill="#060606"/>
<path d="M127.686 17.2657C127.686 17.2657 127.686 17.1407 127.686 17.1032C127.686 17.0657 127.786 17.1032 127.799 17.1032C127.811 17.1032 127.799 17.4158 127.799 17.5783L127.686 17.2657Z" fill="#A8A8A8"/>
<path d="M119.66 25.6423C119.66 25.5548 119.447 25.6423 119.485 25.4548C119.722 25.4548 119.597 25.1798 119.735 25.1047C119.759 25.2874 119.733 25.4733 119.66 25.6423V25.6423Z" fill="#0D0D0D"/>
<path d="M78.2646 15.0778C78.1146 15.0778 78.0521 15.2904 77.8896 15.2404C77.9356 15.0908 78.033 14.9624 78.1646 14.8778L78.2646 15.0778Z" fill="#060606"/>
<path d="M87.5914 23.0168L87.4789 23.1043C87.3869 22.9764 87.3347 22.8242 87.3289 22.6667C87.5164 22.6793 87.4039 22.9668 87.5914 23.0168Z" fill="#0C0C0C"/>
<path d="M116.697 21.8791C116.772 21.8791 116.872 21.8041 116.859 21.9541C116.847 22.1041 116.859 22.1542 116.784 22.1542C116.709 22.1542 116.709 22.0666 116.684 22.0291L116.697 21.8791Z" fill="#010101"/>
<path d="M153.366 15.4154C153.479 15.6529 153.279 15.703 153.141 15.778C153.184 15.6399 153.262 15.5152 153.366 15.4154V15.4154Z" fill="#111111"/>
<path d="M128.287 20.3038C128.287 20.5164 128.287 20.7289 128.212 20.9164V20.5914C128.212 20.4914 128.174 20.3788 128.287 20.3038Z" fill="black"/>
<path d="M104.757 20.0037L104.657 20.4538C104.57 20.3538 104.582 20.2163 104.545 20.1037L104.757 20.0037Z" fill="#0B0B0B"/>
<path d="M85.0159 23.3669L84.8284 23.4669H84.3908C84.5898 23.3898 84.8028 23.3557 85.0159 23.3669Z" fill="#0B0B0B"/>
<path d="M120.535 17.2657V17.1657V17.0282L120.648 17.1782V17.5033L120.535 17.2657Z" fill="#B5B5B5"/>
<path d="M117.822 13.0649C117.822 13.2525 117.885 13.44 117.747 13.6025C117.721 13.4199 117.747 13.2336 117.822 13.0649V13.0649Z" fill="#0D0D0D"/>
<path d="M94.0051 23.1793C93.6395 23.4601 93.1843 23.5985 92.7243 23.5686C92.2643 23.5387 91.8308 23.3426 91.5047 23.0168C91.3028 22.8563 91.1475 22.6448 91.0546 22.4042C90.6706 21.1584 90.5765 19.8412 90.7795 18.5535V18.4785C90.8375 17.8346 90.9589 17.1981 91.1421 16.5781C91.1653 16.3494 91.2511 16.1316 91.3901 15.9486C91.529 15.7655 91.7157 15.6243 91.9297 15.5404H92.0047C92.0855 15.4393 92.1919 15.3616 92.3128 15.3154C92.4337 15.2692 92.5648 15.2563 92.6924 15.2779C92.845 15.3088 93.0023 15.3088 93.155 15.2779C93.4262 15.3045 93.6768 15.4343 93.8551 15.6404C93.9676 15.903 94.0301 16.203 94.3552 16.3156C94.6829 16.9243 94.8668 17.6 94.8928 18.2909C94.8928 18.4785 94.8928 18.6535 94.8928 18.841C94.9443 18.8931 94.9834 18.9561 95.0072 19.0254C95.031 19.0946 95.0389 19.1684 95.0303 19.2411C95.0566 19.9146 95.0147 20.5889 94.9053 21.254C94.8649 21.4354 94.8357 21.6191 94.8178 21.8041C94.7902 22.0786 94.7033 22.3438 94.563 22.5812C94.4226 22.8187 94.2323 23.0228 94.0051 23.1793Z" fill="#F7F7F7"/>
<path d="M90.8045 18.4785C90.7651 19.5605 90.8195 20.6439 90.9671 21.7166C91.0583 22.1637 91.2367 22.5886 91.4922 22.9668C91.3546 22.9668 91.2421 22.9668 91.2046 22.7418C91.2046 23.1168 91.0546 23.2668 90.742 22.9918H90.667C90.0169 23.1043 90.1169 22.6667 90.1169 22.2792C90.1169 21.3915 90.1169 20.5038 90.1169 19.6162C90.0802 19.376 90.129 19.1306 90.2546 18.9227C90.3803 18.7148 90.5749 18.5576 90.8045 18.4785V18.4785Z" fill="#010101"/>
<path d="M94.0051 23.1793C94.5958 22.4818 94.9115 21.5927 94.8928 20.6789C94.8928 20.0662 94.8928 19.4286 94.9803 18.8535C95.793 18.8535 95.6429 18.766 95.7055 19.5286C95.6952 20.0612 95.5716 20.5854 95.3429 21.0664C95.3296 21.099 95.3093 21.1283 95.2833 21.1521C95.2574 21.1759 95.2265 21.1936 95.1928 21.204C95.1341 21.2114 95.0781 21.2336 95.0303 21.2685C94.9824 21.3034 94.9442 21.3499 94.9192 21.4036C94.8942 21.4574 94.8833 21.5165 94.8874 21.5756C94.8915 21.6347 94.9106 21.6918 94.9428 21.7416C95.1303 22.1291 94.9428 22.5042 94.9428 22.8793C94.9428 23.0543 94.7303 23.0918 94.6678 22.9918C94.4427 22.6042 94.3927 22.9918 94.3302 23.0668C94.2677 23.1418 94.2052 23.3169 94.0051 23.1793Z" fill="#010101"/>
<path d="M91.9548 15.5404C91.6205 15.8255 91.3519 16.1795 91.1671 16.5781C90.9554 16.4463 90.7929 16.2486 90.7045 16.0155C90.6525 15.9308 90.6244 15.8335 90.6232 15.7341C90.622 15.6347 90.6478 15.5368 90.6978 15.4509C90.7479 15.3649 90.8202 15.2942 90.9073 15.2461C90.9943 15.198 91.0927 15.1744 91.1921 15.1778C91.4922 15.1528 91.7047 15.4029 91.9548 15.5404Z" fill="#020202"/>
<path d="M93.8551 15.7029C93.6847 15.5416 93.4793 15.4219 93.255 15.3529C93.255 15.2779 93.1175 15.3529 93.08 15.2529C93.2925 15.1403 93.4925 14.9528 93.7676 14.9903C94.0426 15.0278 94.1802 14.8903 94.2677 15.1153C94.3185 15.219 94.3361 15.3358 94.3182 15.4499C94.3003 15.564 94.2478 15.6698 94.1677 15.753C94.1677 15.753 94.1677 15.828 94.1677 15.8655C94.1677 15.903 93.9426 15.7655 93.8551 15.7029Z" fill="#020202"/>
<path d="M93.08 15.2529C93.1159 15.2495 93.152 15.2572 93.1833 15.2751C93.2147 15.293 93.2397 15.3202 93.255 15.3529C92.8323 15.2954 92.4019 15.3471 92.0048 15.5029C92.0048 15.2404 92.0048 14.9528 92.2798 14.8528C92.5549 14.7528 92.6924 15.1153 92.9674 14.9778C92.9674 15.1153 92.8049 15.0653 92.8049 15.0903C92.8049 15.1153 93.0049 15.1904 93.08 15.2529Z" fill="#030303"/>
<path d="M93.8551 15.7029C93.9926 15.7029 94.0176 15.853 94.1176 15.8655L94.3802 16.3031C93.9051 16.3531 93.9051 16.0155 93.8551 15.7029Z" fill="#EAEAEA"/>
<path d="M147.365 18.3034H147.278C147.14 18.4909 146.915 18.3034 146.74 18.4409C146.577 18.5785 146.377 18.5285 146.19 18.5535C146.137 18.5681 146.081 18.5695 146.027 18.5575C145.973 18.5455 145.923 18.5206 145.881 18.4848C145.839 18.4491 145.807 18.4036 145.787 18.3523C145.766 18.3011 145.759 18.2457 145.765 18.1909C145.765 17.2907 145.765 16.3906 145.765 15.4904C145.76 15.4382 145.767 15.3857 145.786 15.3368C145.805 15.288 145.835 15.2443 145.874 15.2091C145.913 15.174 145.96 15.1483 146.01 15.1342C146.06 15.1201 146.113 15.1179 146.165 15.1278C146.436 15.1275 146.705 15.1654 146.965 15.2403C147.048 15.2702 147.127 15.3079 147.203 15.3529C147.43 15.4005 147.644 15.499 147.828 15.6412C148.012 15.7833 148.161 15.9653 148.265 16.1735C148.368 16.3817 148.423 16.6107 148.425 16.8432C148.428 17.0756 148.377 17.3056 148.278 17.5158C148.271 17.5864 148.271 17.6576 148.278 17.7283C148.192 17.8977 148.062 18.0407 147.901 18.142C147.74 18.2433 147.555 18.2991 147.365 18.3034V18.3034Z" fill="#F6F6F6"/>
<path d="M148.115 17.7658C148.241 17.5461 148.314 17.3006 148.329 17.0481C148.344 16.7957 148.301 16.5431 148.203 16.3099C148.105 16.0767 147.955 15.8691 147.764 15.7032C147.574 15.5373 147.347 15.4174 147.103 15.3529C147.103 15.3529 147.103 15.3529 147.103 15.2529C147.453 15.3279 147.803 15.5529 148.14 15.2529C148.228 15.1653 148.665 15.4779 148.665 15.6279C148.67 15.8247 148.722 16.0174 148.815 16.1905C148.858 16.2972 148.873 16.4132 148.858 16.5272C148.842 16.6412 148.798 16.7492 148.728 16.8407C148.521 17.1351 148.384 17.473 148.328 17.8283C148.31 17.8391 148.29 17.8461 148.269 17.8488C148.249 17.8515 148.228 17.8498 148.208 17.844C148.188 17.8381 148.169 17.8281 148.153 17.8146C148.137 17.8012 148.124 17.7846 148.115 17.7658V17.7658Z" fill="#020202"/>
<path d="M148.115 17.7659H148.328C148.953 17.7659 148.603 18.241 148.665 18.5035C148.728 18.7661 148.515 18.8661 148.303 18.8036C148.09 18.7411 147.578 19.0911 147.64 18.4535C147.64 18.4535 147.465 18.341 147.365 18.291C147.644 18.1606 147.897 17.9829 148.115 17.7659V17.7659Z" fill="#010101"/>
<path d="M147.103 15.2528V15.3529C146.815 15.3529 146.527 15.3529 146.24 15.2528C145.952 15.1528 145.84 15.2528 145.852 15.6029C145.852 16.4281 145.852 17.2532 145.852 18.1034C145.852 18.4534 145.927 18.5785 146.277 18.516C146.436 18.5032 146.594 18.5032 146.753 18.516C146.652 18.666 146.753 18.7535 146.853 18.891C146.515 18.6035 146.152 18.8035 145.802 18.791C145.74 18.6746 145.702 18.5472 145.69 18.4159C145.69 17.4408 145.69 16.4531 145.69 15.4779C145.615 15.0903 145.852 14.9153 146.14 15.0653C146.427 15.2153 146.89 14.8403 147.103 15.2528Z" fill="#050505"/>
<path d="M145.715 15.4279C145.753 15.4891 145.778 15.557 145.79 15.628C145.79 16.6656 145.79 17.7033 145.79 18.741C145.674 18.6875 145.581 18.5944 145.527 18.4785C145.565 17.8206 145.565 17.161 145.527 16.5031C145.49 16.1457 145.49 15.7853 145.527 15.4279H145.715Z" fill="#020202"/>
<path d="M145.627 15.4279V18.0284C145.627 18.1784 145.627 18.3535 145.54 18.4785V15.4779L145.627 15.4279Z" fill="#050505"/>
<path d="M146.74 18.466L147.278 18.3284C147.165 18.6035 146.928 18.441 146.74 18.466Z" fill="#050505"/>
<path d="M151.953 16.7656C151.953 16.7656 151.953 16.8281 151.891 16.8406C151.828 16.8531 151.816 16.8406 151.891 16.7781C151.88 16.7499 151.88 16.7188 151.891 16.6906C151.891 16.6906 151.953 16.7031 151.953 16.7656Z" fill="#090909"/>
<path d="M116.522 24.317C116.722 24.2295 116.684 24.042 116.697 23.8794C116.709 23.7169 116.597 23.2793 116.784 23.0168C116.784 23.4294 116.784 23.8544 116.784 24.267C116.784 24.3545 116.784 24.4921 116.647 24.4921C116.509 24.4921 116.559 24.3795 116.522 24.317Z" fill="#010101"/>
<path d="M119.485 25.4548C119.36 25.3422 119.385 25.2422 119.485 25.1172C119.622 25.2547 119.485 25.3422 119.485 25.4548Z" fill="#0D0D0D"/>
<path d="M166.281 17.7783C166.356 17.9033 166.281 18.0159 166.281 18.1284C166.044 18.1284 165.981 18.2784 166.069 18.4909C166.156 18.7035 166.069 18.8285 165.881 18.816C165.694 18.8035 165.406 18.941 165.406 18.566V16.253C165.406 16.003 165.556 15.9905 165.744 15.9905C165.931 15.9905 166.094 15.9905 166.106 16.278C166.054 16.7629 166.083 17.2532 166.194 17.7283L166.281 17.7783Z" fill="#020202"/>
<path d="M169.407 12.9024C169.744 12.7774 169.707 13.215 169.932 13.2525C169.951 13.8578 169.926 14.4636 169.857 15.0653C169.857 15.2653 169.769 15.3529 169.569 15.3404H168.482C168.194 15.3404 168.194 15.1778 168.194 14.9778C168.194 14.7777 168.194 14.6277 168.469 14.6402C168.744 14.6527 168.932 14.6402 169.169 14.6402C169.407 14.6402 169.594 14.5152 169.594 14.1901C169.607 13.7532 169.544 13.3174 169.407 12.9024V12.9024Z" fill="#010101"/>
<path d="M167.531 26.1424H167.056C166.944 26.1424 166.856 26.1424 166.869 25.9674C166.881 25.7923 166.956 25.8048 167.069 25.8048H168.019C168.119 25.8048 168.219 25.8048 168.232 25.9549C168.244 26.1049 168.132 26.1424 168.007 26.1424H167.531Z" fill="#010101"/>
<path d="M167.531 18.4785H167.919C168.044 18.4785 168.194 18.4785 168.194 18.666C168.194 18.8535 168.057 18.8285 167.944 18.8285H167.081C166.969 18.8285 166.831 18.8285 166.831 18.666C166.831 18.5035 166.969 18.4785 167.094 18.4785H167.531Z" fill="#010101"/>
<path d="M164.781 25.8048C164.943 25.8923 165.368 25.6173 165.356 25.9923C165.343 26.3674 164.956 26.1049 164.743 26.1424C164.573 26.1612 164.401 26.1612 164.231 26.1424C164.118 26.1424 164.031 26.1424 164.018 25.9798C164.006 25.8173 164.106 25.8048 164.218 25.8048H164.781Z" fill="#010101"/>
<path d="M168.194 18.216C168.646 18.0786 169.129 18.0786 169.582 18.216H168.194Z" fill="#020202"/>
<path d="M166.369 15.4279L166.194 15.8655C166.031 15.4404 166.056 15.3779 166.369 15.4279Z" fill="#020202"/>
<path d="M153.554 22.6668C153.524 22.6194 153.499 22.5691 153.479 22.5167C153.479 22.4042 153.479 22.2292 153.379 22.1667C153.279 22.1042 153.191 22.3667 153.029 22.4417C152.909 22.1834 152.849 21.9013 152.854 21.6166C153.204 21.6166 153.554 21.6166 153.904 21.6166C154.254 21.6166 154.254 21.7916 154.254 22.0417C154.254 22.2917 154.104 22.3167 153.879 22.2667C153.654 22.2167 153.554 22.5042 153.554 22.6668Z" fill="#010101"/>
<path d="M104.582 19.6161C104.807 19.6161 104.72 19.7662 104.67 19.8787C104.62 19.9912 104.582 19.7037 104.582 19.6161Z" fill="#0B0B0B"/>
<path d="M169.932 12.8149C167.606 12.8149 165.293 12.6899 162.856 12.8149C163.018 12.6024 163.118 12.6399 163.206 12.6399H169.557C169.694 12.6399 169.894 12.5649 169.932 12.8024V12.8149Z" fill="black"/>
<path d="M166.281 17.7784V15.978C166.387 16.5734 166.387 17.183 166.281 17.7784V17.7784Z" fill="#020202"/>
<path d="M83.8407 12.3773C84.0408 12.7649 84.3658 12.3773 84.6409 12.5024C84.8542 12.5842 85.0902 12.5842 85.3035 12.5024C85.466 12.4399 85.6036 12.6024 85.6036 12.7899C85.6036 12.9775 85.4285 12.9024 85.341 12.9024H82.9531C82.8155 12.9024 82.653 12.9024 82.5655 12.8024C82.478 12.7024 82.5655 12.6149 82.653 12.5399C82.7405 12.4649 82.9156 12.3023 83.1156 12.4399C83.1565 12.4762 83.2029 12.5057 83.2531 12.5274C83.2786 12.5511 83.3121 12.5643 83.3469 12.5643C83.3817 12.5643 83.4152 12.5511 83.4406 12.5274C83.5032 12.4148 83.2906 12.4524 83.3406 12.3273L83.8407 12.4148V12.3773Z" fill="black"/>
<path d="M83.8407 12.3773C83.9657 12.2523 84.1158 12.2898 84.2658 12.3773H83.8407Z" fill="black"/>
<path d="M117.997 13.0774C117.997 12.8649 118.197 12.9024 118.335 12.9024H122.198C122.335 12.9024 122.498 12.9024 122.535 13.0774H117.997Z" fill="black"/>
<path d="M95.3179 12.8774H95.6429C95.4929 13.015 95.3929 13.0025 95.3179 12.8774Z" fill="black"/>
<path d="M140.976 12.8274C140.976 13.5401 140.976 14.2402 140.976 14.9528C140.976 15.2529 140.889 15.3529 140.589 15.3529C139.639 15.3529 138.676 15.3529 137.726 15.3529C137.588 15.3529 137.438 15.3529 137.326 15.4404C137.151 15.3779 137.101 15.0528 136.826 15.2404C136.721 15.3075 136.645 15.4113 136.612 15.5316C136.58 15.6518 136.594 15.7798 136.651 15.8905C136.807 16.3094 136.854 16.7611 136.788 17.2032C136.811 17.6197 136.811 18.0371 136.788 18.4535C136.788 18.716 136.888 18.791 137.151 18.791C137.413 18.791 137.526 18.716 137.501 18.4535C137.495 18.3369 137.495 18.22 137.501 18.1034H140.001C140.251 18.1034 140.351 18.1784 140.351 18.4535C140.351 19.0869 140.351 19.7246 140.351 20.3663C140.351 20.6664 140.239 20.7414 139.964 20.7164C139.132 20.7977 138.295 20.7977 137.463 20.7164C137.288 20.7164 137.201 20.7164 137.201 20.9664C137.201 21.2165 137.201 21.254 137.201 21.404C136.538 21.9791 136.851 22.6543 136.901 23.3794C136.901 23.5669 137.113 23.5669 137.213 23.667C137.793 23.7878 138.389 23.8089 138.976 23.7295C139.614 23.7295 140.226 23.7295 140.876 23.7295C140.936 23.7387 140.989 23.7699 141.026 23.817V24.3171C140.451 24.6421 140.376 24.8297 140.526 25.5673C140.639 26.0799 140.601 26.1424 140.064 26.1424H134.538C134.025 26.1424 133.963 26.0799 133.938 25.5798V24.8422C133.938 24.5046 134 24.2421 134.388 24.167C134.775 24.092 134.638 23.867 134.625 23.6795C134.613 23.4919 134.725 23.1544 134.413 23.0793C134.1 23.0043 133.925 22.6918 133.938 22.3292C133.938 22.1667 133.938 22.0166 133.938 21.8541C133.938 21.6916 134.038 21.454 134.275 21.4165C134.513 21.379 134.625 21.079 134.625 20.8164C134.625 20.5539 134.625 20.3163 134.3 20.2538C133.975 20.1913 133.95 20.0288 133.938 19.7912C133.925 19.558 133.925 19.3243 133.938 19.0911C133.927 18.9807 133.958 18.8702 134.025 18.782C134.092 18.6938 134.191 18.6345 134.3 18.616C134.675 18.5535 134.613 18.2659 134.625 18.0034C134.638 17.7408 134.625 17.5033 134.275 17.4533C133.925 17.4033 133.95 17.2533 133.938 17.0282C133.925 16.8032 133.938 16.5656 133.938 16.3281C133.938 16.0905 134.038 15.878 134.325 15.828C134.613 15.778 134.638 15.5404 134.638 15.3029C134.638 15.0653 134.638 14.7528 134.325 14.6778C134.175 14.6778 134.013 14.6028 134 14.4277C133.869 13.8522 133.895 13.2519 134.075 12.6899C134.215 12.6594 134.36 12.6594 134.5 12.6899H140.526C140.651 12.7274 140.839 12.6899 140.976 12.8274Z" fill="black"/>
<path d="M134.038 12.8149C134.038 13.3025 134.038 13.8026 134.038 14.2902C134.038 14.5527 134.125 14.6777 134.388 14.6402C134.65 14.6027 134.763 14.7528 134.75 15.0278C134.725 15.2145 134.725 15.4037 134.75 15.5904C134.75 15.9155 134.75 16.103 134.325 16.0405C134.225 16.0405 134.075 16.0405 134.075 16.153C134.05 16.5444 134.05 16.9369 134.075 17.3282C134.075 17.4658 134.263 17.4408 134.375 17.4283C134.7 17.4283 134.775 17.5533 134.75 17.8408C134.738 17.999 134.738 18.1578 134.75 18.3159C134.75 18.6535 134.75 18.8035 134.3 18.8535C133.85 18.9035 134.138 19.4411 134.063 19.7537C133.988 20.0663 133.938 20.2413 134.313 20.2163C134.688 20.1913 134.788 20.3663 134.75 20.6914C134.732 20.8366 134.732 20.9837 134.75 21.129C134.75 21.454 134.75 21.579 134.325 21.6416C133.763 21.7291 134.138 22.2417 134.063 22.5667C133.988 22.8918 133.963 23.0543 134.338 23.0043C134.713 22.9543 134.775 23.1543 134.75 23.4669C134.738 23.625 134.738 23.7839 134.75 23.942C134.75 24.2545 134.75 24.4671 134.338 24.4046C133.925 24.3421 134.038 24.5046 134.05 24.7171V25.8548C134.05 26.0924 134.138 26.1549 134.363 26.1549H140.189C140.464 26.1549 140.551 26.0924 140.401 25.7923C140.265 25.3867 140.265 24.9477 140.401 24.5421C140.401 24.2295 140.839 24.4546 141.051 24.3796C141.051 24.9047 141.051 25.4298 141.051 25.9549C141.051 26.2049 141.051 26.3174 140.714 26.3174C138.476 26.3174 136.251 26.3174 134.013 26.3174C133.775 26.3174 133.625 26.3174 133.713 26.0174C133.713 25.9299 133.713 25.8173 133.713 25.7173C133.744 25.5647 133.744 25.4074 133.713 25.2547C133.713 21.7541 133.713 18.2659 133.713 14.7653C133.763 14.3961 133.763 14.0218 133.713 13.6526C133.752 13.3902 133.81 13.1311 133.888 12.8774C133.875 12.7649 133.963 12.7774 134.038 12.8149Z" fill="#020202"/>
<path d="M133.688 14.6403V25.2047C133.688 25.3673 133.688 25.5548 133.613 25.6923C133.613 21.5416 133.613 17.3783 133.613 13.19C133.613 13.0775 133.613 12.9524 133.7 12.8649C133.888 13.0775 133.7 13.315 133.7 13.5276C133.75 13.8971 133.745 14.2719 133.688 14.6403V14.6403Z" fill="black"/>
<path d="M137.176 23.7544C136.826 23.8545 136.713 23.7544 136.726 23.3794C136.738 23.0043 136.651 22.7292 136.638 22.3917C136.626 22.0541 136.638 21.6165 137.163 21.4915C137.163 22.1916 137.163 22.9543 137.176 23.7544Z" fill="#020202"/>
<path d="M133.688 14.6402V12.9024C133.688 12.8399 133.588 12.7899 133.688 12.7274C133.785 12.6959 133.89 12.6959 133.988 12.7274H140.689C140.782 12.6959 140.883 12.6959 140.976 12.7274V12.8274H134.038C133.886 13.1137 133.796 13.4291 133.775 13.7526C133.775 14.0276 133.875 14.3527 133.688 14.6402Z" fill="#050505"/>
<path d="M140.989 23.892H137.726C137.526 23.892 137.313 23.892 137.176 23.717C137.176 23.717 137.251 23.617 137.376 23.642C137.879 23.7797 138.41 23.7797 138.914 23.642C139.328 23.5769 139.75 23.5769 140.164 23.642C140.314 23.8045 140.514 23.7045 140.701 23.7295C140.889 23.7545 140.989 23.6545 140.989 23.892Z" fill="#020202"/>
<path d="M140.976 12.7274H133.688C133.718 12.6957 133.755 12.6713 133.796 12.6561C133.837 12.6409 133.881 12.6354 133.925 12.6399H140.976V12.7274Z" fill="#020202"/>
<path d="M130.549 12.6399C130.549 12.6399 130.449 12.7149 130.399 12.7149C129.062 12.7149 127.724 12.7149 126.374 12.6399H130.549Z" fill="black"/>
<path d="M147.078 12.6649C146.953 12.7899 146.803 12.6649 146.665 12.6649H142.414H147.078Z" fill="black"/>
<path d="M113.559 12.8149C113.389 12.7307 113.197 12.7002 113.009 12.7274C111.758 12.7274 110.596 12.7274 109.396 12.6399H113.146C113.296 12.6399 113.484 12.5524 113.534 12.8024L113.559 12.8149Z" fill="black"/>
<path d="M90.667 19.3787C90.7226 19.5279 90.7226 19.6921 90.667 19.8412C90.6114 19.6921 90.6114 19.5279 90.667 19.3787V19.3787Z" fill="black"/>
<path d="M31.9185 6.92627H69.238C69.8037 6.92623 70.3638 7.03846 70.8859 7.25646C71.4079 7.47446 71.8815 7.79389 72.2792 8.19625C72.6769 8.59861 72.9908 9.07589 73.2028 9.60044C73.4147 10.125 73.5204 10.6864 73.5138 11.2521V25.4422C73.5138 26.5763 73.0633 27.6638 72.2614 28.4657C71.4596 29.2676 70.372 29.718 69.238 29.718H55.8605L57.6983 34.2189L49.6093 29.718H31.931C30.7991 29.7147 29.7148 29.2628 28.9156 28.4613C28.1164 27.6598 27.6677 26.5741 27.6677 25.4422V11.2521C27.6577 10.6876 27.7603 10.1267 27.9695 9.60232C28.1786 9.0779 28.4902 8.60041 28.8859 8.1977C29.2816 7.795 29.7536 7.47516 30.2743 7.25687C30.7949 7.03857 31.3539 6.92618 31.9185 6.92627V6.92627Z" fill="#985C8D"/>
<path d="M30.2682 10.8145C30.4091 10.6375 30.5877 10.494 30.791 10.3945C30.9943 10.2951 31.2171 10.2421 31.4434 10.2394C31.6419 10.2004 31.8466 10.2061 32.0427 10.2561C32.2387 10.3061 32.4212 10.3991 32.5768 10.5284C32.7325 10.6577 32.8573 10.82 32.9424 11.0036C33.0275 11.1871 33.0706 11.3873 33.0687 11.5897C33.6438 15.4779 34.3189 18.7785 34.9566 21.479L39.0323 13.7526C39.1464 13.4598 39.3361 13.2025 39.5821 13.007C39.8281 12.8115 40.1216 12.6848 40.4326 12.6399C41.2577 12.6399 41.7578 13.1024 41.9579 14.2026C42.352 16.3646 42.9549 18.4833 43.7582 20.5288C44.2458 15.7904 45.0084 12.3898 46.2587 10.2769C46.3705 10.0383 46.5469 9.83581 46.7678 9.69221C46.9888 9.5486 47.2455 9.46965 47.5089 9.46426C47.9329 9.42786 48.3544 9.55789 48.6841 9.82683C48.849 9.95388 48.9854 10.1141 49.0844 10.2972C49.1835 10.4802 49.243 10.682 49.2592 10.8895C49.2884 11.2016 49.2231 11.5152 49.0717 11.7897C48.1241 13.9241 47.5167 16.1936 47.2714 18.516C46.8486 20.8582 46.6726 23.2383 46.7463 25.6173C46.7929 26.047 46.7147 26.481 46.5212 26.8675C46.4246 27.0513 46.2837 27.2081 46.1112 27.3238C45.9388 27.4395 45.7402 27.5104 45.5335 27.5301C45.2519 27.5328 44.9733 27.4725 44.718 27.3535C44.4627 27.2345 44.2373 27.0599 44.0583 26.8425C42.0579 24.5728 40.6455 21.8467 39.945 18.9035C38.6781 21.304 37.7529 23.0876 37.1695 24.2545C36.0693 26.3674 35.1441 27.4426 34.3564 27.5051C33.8563 27.5051 33.4188 27.1051 33.1062 26.2549C31.6491 21.6274 30.6114 16.8782 30.0056 12.0647C29.967 11.8477 29.9725 11.6251 30.0219 11.4103C30.0713 11.1955 30.1636 10.9928 30.2932 10.8145H30.2682ZM70.2757 13.7401C69.9712 13.1826 69.546 12.7002 69.0312 12.3282C68.5164 11.9561 67.925 11.7038 67.3001 11.5897C66.9674 11.5172 66.628 11.4795 66.2874 11.4771C65.3728 11.4972 64.4812 11.7677 63.7097 12.2593C62.9381 12.7508 62.3162 13.4447 61.9116 14.2652C60.9414 15.8477 60.4386 17.6725 60.4613 19.5286C60.4109 20.8363 60.7178 22.133 61.349 23.2794C61.669 23.832 62.1073 24.3069 62.6326 24.6701C63.1579 25.0332 63.757 25.2756 64.3871 25.3797C64.7156 25.4521 65.0508 25.4898 65.3873 25.4923C66.3053 25.4733 67.2005 25.202 67.9746 24.708C68.7486 24.214 69.3717 23.5164 69.7756 22.6917C70.7532 21.1059 71.2685 19.2787 71.2634 17.4158C71.296 16.1314 70.9713 14.8633 70.3257 13.7526L70.2757 13.7401ZM67.9252 18.9035C67.7696 19.9544 67.2732 20.9251 66.5125 21.6665C66.3252 21.8783 66.0906 22.043 65.8278 22.1473C65.5649 22.2516 65.2813 22.2925 64.9997 22.2667C64.5621 22.1666 64.187 21.7791 63.8995 21.0164C63.6868 20.4747 63.5766 19.8981 63.5744 19.3161C63.5715 18.8589 63.6134 18.4024 63.6994 17.9534C63.8751 17.1563 64.2112 16.4034 64.6871 15.7404C65.2997 14.8278 65.9374 14.4902 66.625 14.5902C67.0751 14.6777 67.4501 15.0653 67.7252 15.8405C67.9532 16.3669 68.0845 16.9302 68.1128 17.5033C68.1197 17.9654 68.0736 18.4269 67.9752 18.8785L67.9252 18.9035ZM58.661 13.7526C58.3511 13.197 57.9228 12.7163 57.4064 12.3447C56.89 11.9731 56.2982 11.7196 55.6729 11.6022C55.3444 11.5298 55.0092 11.4921 54.6728 11.4896C53.7581 11.5097 52.8665 11.7802 52.095 12.2718C51.3234 12.7634 50.7015 13.4572 50.2969 14.2777C49.3229 15.8592 48.8158 17.6838 48.8342 19.5412C48.7876 20.85 49.0988 22.1467 49.7343 23.2919C50.0416 23.8484 50.4673 24.3305 50.9815 24.7043C51.4957 25.0781 52.0857 25.3343 52.7099 25.4548C53.78 25.691 54.8989 25.553 55.8796 25.0638C56.8602 24.5746 57.6434 23.7638 58.0984 22.7668C59.0709 21.18 59.5778 19.3518 59.5612 17.4908C59.6132 16.1854 59.3016 14.8912 58.661 13.7526V13.7526ZM56.2605 18.9035C56.1006 19.9557 55.5999 20.9263 54.8353 21.6665C54.6499 21.8773 54.4175 22.0415 54.1568 22.1458C53.8962 22.25 53.6146 22.2914 53.335 22.2667C52.8849 22.1666 52.5098 21.7791 52.2348 21.0164C52.0184 20.4753 51.9039 19.8988 51.8972 19.3161C51.8943 18.8589 51.9362 18.4024 52.0223 17.9534C52.204 17.1584 52.5395 16.4066 53.0099 15.7404C53.6226 14.8278 54.2602 14.4902 54.9478 14.5902C55.3979 14.6777 55.773 15.0653 56.048 15.8405C56.2717 16.3678 56.3988 16.931 56.4231 17.5033C56.4403 17.9651 56.3983 18.4273 56.2981 18.8785L56.2605 18.9035Z" fill="white"/>
</g>
<defs>
<clipPath id="clip0">
<rect width="200" height="37.6321" fill="white"/>
</clipPath>
</defs>
</svg>
