<svg width="200" height="52" viewBox="0 0 200 52" fill="none" xmlns="http://www.w3.org/2000/svg">
<g clip-path="url(#clip0)">
<path fill-rule="evenodd" clip-rule="evenodd" d="M10.831 46.1241C7.96588 46.1259 5.21591 44.9963 3.17931 42.981C2.1726 41.9839 1.37333 40.7972 0.827652 39.4895C0.281971 38.1818 0.000675217 36.779 0 35.3621L0 19.3759C0 13.431 4.85 8.61379 10.831 8.61379C16.8103 8.61379 21.6603 13.4328 21.6603 19.3759V24.5776L27.3155 24.5672H27.3379C33.3103 24.5672 38.1569 29.3707 38.169 35.3052C38.181 41.25 33.3414 46.0776 27.3603 46.0897L10.8534 46.1241H10.831Z" fill="#773CBC"/>
<path opacity="0.5" fill-rule="evenodd" clip-rule="evenodd" d="M15.1655 41.8172C12.3004 41.819 9.5504 40.6894 7.5138 38.6741C6.50708 37.677 5.70782 36.4903 5.16214 35.1826C4.61646 33.8749 4.33516 32.4721 4.33449 31.0552V15.069C4.33449 9.12586 9.18449 4.3069 15.1655 4.3069C21.1466 4.3069 25.9948 9.12586 25.9948 15.069V20.2707L31.65 20.2603H31.6741C37.6448 20.2603 42.4914 25.0638 42.5035 30.9983C42.5155 36.9431 37.6776 41.7707 31.6948 41.7828L15.1879 41.8172H15.1655Z" fill="#FE509C"/>
<path opacity="0.5" fill-rule="evenodd" clip-rule="evenodd" d="M19.5 37.5086C16.6353 37.5105 13.8859 36.3808 11.85 34.3655C10.8429 33.3689 10.0433 32.1826 9.49734 30.8752C8.95135 29.5678 8.6698 28.1651 8.66896 26.7483V10.7586C8.66896 4.81896 13.519 0 19.5 0C25.481 0 30.3276 4.81896 30.3276 10.7586V15.9655L35.9845 15.9517H36.0069C41.9776 15.9517 46.8241 20.7569 46.8362 26.6931C46.8483 32.6345 42.0086 37.4638 36.0276 37.4759L19.5207 37.5103H19.4983L19.5 37.5086Z" fill="#FF005E"/>
<path fill-rule="evenodd" clip-rule="evenodd" d="M189.655 9.12759C189.657 8.53188 189.777 7.94241 190.006 7.39283C190.236 6.84325 190.572 6.34433 190.995 5.92454C191.417 5.50476 191.919 5.17233 192.47 4.94625C193.021 4.72017 193.611 4.60486 194.207 4.6069C194.803 4.60463 195.393 4.71979 195.944 4.94579C196.496 5.17179 196.997 5.5042 197.42 5.92404C197.842 6.34387 198.178 6.84288 198.408 7.39256C198.638 7.94225 198.757 8.53182 198.759 9.12759C198.757 9.72344 198.638 10.3131 198.408 10.8629C198.178 11.4127 197.842 11.9118 197.42 12.3317C196.997 12.7517 196.496 13.0843 195.944 13.3105C195.393 13.5367 194.803 13.652 194.207 13.65C193.611 13.6523 193.02 13.5371 192.469 13.3109C191.918 13.0848 191.416 12.7523 190.994 12.3323C190.571 11.9122 190.235 11.413 190.005 10.8631C189.776 10.3133 189.657 9.7235 189.655 9.12759" fill="#FE509C"/>
<path fill-rule="evenodd" clip-rule="evenodd" d="M83.1431 9.37069H91.9448L79.3293 31.5862V41.1759H71.3776V31.5862L58.7155 9.37069H67.5172L75.3086 23.2328L83.1431 9.37069ZM146.247 17.7966C149.195 17.7966 151.557 18.7362 153.329 20.6172C155.103 22.4966 155.991 25.0345 155.991 28.2328V41.1776H148.36V29.4414C148.36 27.8293 147.99 26.631 147.247 25.8466C146.503 25.0603 145.497 24.669 144.224 24.669C142.953 24.669 141.803 25.2931 140.776 26.5414C140.84 27.0897 140.869 27.6534 140.869 28.231V41.1793H133.24V29.4414C133.24 27.8293 132.871 26.631 132.133 25.8466C131.397 25.0603 130.39 24.669 129.116 24.669C127.84 24.669 126.709 25.3241 125.726 26.6345V41.1776H118.097V18.5052H125.726V19.8069C127.262 18.4655 129.138 17.7966 131.35 17.7966C134.264 17.7966 136.617 18.8241 138.41 20.8793C140.633 18.8241 143.245 17.7966 146.247 17.7966V17.7966ZM173.178 35.6C176.393 35.6 179 33.0103 179 29.8155C179.002 26.6207 176.397 24.0293 173.179 24.0293C169.964 24.0293 167.357 26.619 167.357 29.8138C167.357 31.169 167.845 32.4 168.629 33.3845V33.3879C169.171 34.0763 169.862 34.6329 170.65 35.016C171.439 35.3992 172.303 35.5988 173.179 35.6H173.178ZM174.872 17.9793C178.043 17.9793 180.752 19.1052 182.998 21.3586C185.247 23.6121 186.371 26.4345 186.371 29.8293C186.371 33.2259 185.238 36.0397 182.978 38.2776C180.714 40.5172 178.012 41.6345 174.872 41.6345C172.507 41.6345 170.424 41.0828 168.629 39.9741V51.7052H161V18.5034H168.629V19.669C170.41 18.5414 172.491 17.9793 174.871 17.9793H174.872ZM101.022 35.6C104.236 35.6 106.843 33.0103 106.843 29.8155C106.845 26.6207 104.24 24.0293 101.022 24.0293C97.8069 24.0293 95.2 26.619 95.2 29.8138C95.2 33.0103 97.8069 35.6 101.022 35.6V35.6ZM105.457 19.7138V18.5034H113.086V41.1776H105.457V39.9276C103.653 41.0655 101.567 41.6345 99.1983 41.6345C96.0603 41.6345 93.3638 40.5172 91.1052 38.2776C88.8466 36.0397 87.7172 33.2259 87.7172 29.8293C87.7172 26.4345 88.8379 23.6121 91.0828 21.3603C93.3259 19.1052 96.031 17.9776 99.1983 17.9776C101.507 17.9776 103.593 18.5586 105.457 19.7138V19.7138ZM190.391 41.1793V18.5052H198.021V41.1776H190.391V41.1793Z" fill="#773CBC"/>
</g>
<defs>
<clipPath id="clip0">
<rect width="200" height="51.7241" fill="white"/>
</clipPath>
</defs>
</svg>
