<svg viewBox="-7.968 851.132 361.666 79.529" width="361.666" height="79.529" xmlns="http://www.w3.org/2000/svg">
    <g transform="matrix(0.1, 0, 0, -0.1, -9.301416, 930.981506)" fill="#000000" stroke="none">
        <path d="M1343 785 c-159 -43 -265 -159 -295 -325 -47 -253 192 -494 449 -452 176 29 302 154 335 330 22 117 -22 253 -110 341 -56 56 -107 85 -189 106 -70 18 -121 18 -190 0z m220 -65 c65 -24 130 -78 169 -139 31 -49 36 -70 13 -51 -20 17 -45 5 -45 -21 0 -12 -16 -39 -35 -60 -20 -22 -35 -50 -35 -63 0 -13 16 -43 35 -66 19 -23 35 -48 35 -56 0 -18 10 -18 38 2 30 20 28 7 -6 -47 -52 -82 -166 -159 -212 -144 -24 8 -19 44 11 87 25 36 24 57 -5 68 -13 5 -25 12 -27 17 -10 23 -109 83 -137 83 -25 0 -30 5 -36 31 -9 45 -8 59 5 59 7 0 17 7 23 15 18 25 68 9 91 -28 l19 -32 6 50 c3 28 17 67 29 88 13 21 21 40 18 43 -3 3 -21 0 -40 -7 -59 -21 -93 8 -39 33 20 10 28 22 30 48 2 19 10 39 18 43 20 11 18 44 -3 56 -33 19 21 13 80 -9z m-375 -252 c7 -7 12 -27 12 -44 0 -52 17 -84 50 -96 17 -5 35 -19 41 -29 5 -11 20 -19 34 -19 23 0 25 -4 25 -42 0 -35 6 -46 40 -78 50 -46 55 -85 12 -95 -50 -11 -139 31 -203 94 -70 70 -99 141 -99 242 0 68 0 69 24 63 13 -3 27 -1 30 5 9 14 19 14 34 -1z" style="fill: rgb(242, 42, 11);"/>
        <path d="M184 664 c-54 -20 -119 -76 -147 -128 -30 -56 -32 -222 -3 -276 26 -49 74 -98 121 -123 57 -30 215 -35 305 -10 l65 18 3 138 3 137 -126 0 -125 0 0 -50 0 -50 55 0 55 0 0 -56 0 -56 -65 4 c-72 4 -105 22 -142 78 -33 47 -33 163 0 210 41 60 70 75 151 75 65 0 79 -4 125 -32 29 -18 57 -33 62 -33 5 0 9 29 9 63 l0 64 -42 18 c-59 25 -246 31 -304 9z"/>
        <path d="M1910 395 l0 -287 163 3 c153 4 165 6 218 31 72 36 104 87 97 159 -6 55 -25 82 -77 109 -34 17 -34 18 -13 29 52 28 69 127 30 176 -38 48 -78 58 -255 63 l-163 4 0 -287z m282 158 c19 -17 23 -49 10 -71 -10 -15 -66 -32 -109 -32 l-33 0 0 60 0 60 57 0 c38 0 62 -5 75 -17z m18 -206 c20 -10 26 -21 28 -54 4 -57 -20 -73 -110 -73 l-68 0 0 70 0 70 63 0 c34 0 73 -6 87 -13z"/>
        <path d="M620 395 l0 -275 200 0 200 0 0 50 0 50 -130 0 -130 0 0 225 0 225 -70 0 -70 0 0 -275z"/>
        <path d="M2497 402 c-54 -147 -97 -270 -97 -274 0 -5 31 -8 69 -8 l70 0 17 55 18 56 105 -3 104 -3 17 -50 17 -50 71 -3 c40 -2 72 1 72 5 0 4 -43 128 -97 275 l-98 268 -85 0 -85 0 -98 -268z m222 15 l30 -87 -71 0 c-52 0 -69 3 -66 13 3 6 17 50 33 95 16 49 31 80 36 75 5 -5 22 -48 38 -96z"/>
        <path d="M3000 395 l0 -275 200 0 200 0 0 50 0 50 -125 0 -125 0 0 225 0 225 -75 0 -75 0 0 -275z"/>
        <path d="M3530 210 c-11 -11 -20 -29 -20 -40 0 -26 34 -60 60 -60 26 0 60 34 60 60 0 11 -9 29 -20 40 -11 11 -29 20 -40 20 -11 0 -29 -9 -40 -20z" style="fill: rgb(242, 42, 11);"/>
    </g>
</svg>
