<svg version="1.1" viewBox="0 0 1000 206.6" xml:space="preserve" xmlns="http://www.w3.org/2000/svg" xmlns:cc="http://creativecommons.org/ns#" xmlns:dc="http://purl.org/dc/elements/1.1/" xmlns:rdf="http://www.w3.org/1999/02/22-rdf-syntax-ns#">
    <metadata>
        <rdf:RDF>
            <cc:Work rdf:about="">
                <dc:format>image/svg+xml</dc:format>
                <dc:type rdf:resource="http://purl.org/dc/dcmitype/StillImage" />
                <dc:title />
            </cc:Work>
        </rdf:RDF>
    </metadata>
    <defs>
        <clipPath id="h">
            <path d="m866.28 72.697 41.241-72.697h254.69v72.697h-295.93z" />
        </clipPath>
        <clipPath id="g">
            <path d="m0.25693-0.10161h0.69487v0.17567h-0.69487v-0.17567z" />
        </clipPath>
        <linearGradient id="e" x2="1" gradientTransform="matrix(-449.92 0 0 -449.92 1294.5 26.98)" gradientUnits="userSpaceOnUse">
            <stop stop-color="#ffc20e" offset="0" />
            <stop stop-color="#fff200" offset="1" />
        </linearGradient>
        <clipPath id="f">
            <path d="m0 841.89h595.28v-841.89h-595.28v841.89z" />
        </clipPath>
        <linearGradient id="a" x2="1" gradientTransform="matrix(45.274 35.372 35.372 -45.274 158.89 582.24)" gradientUnits="userSpaceOnUse">
            <stop stop-color="#00416b" offset="0" />
            <stop stop-color="#00b1eb" offset=".89999" />
            <stop stop-color="#0083ca" offset="1" />
        </linearGradient>
        <linearGradient id="b" x2="1" gradientTransform="matrix(31.932 0 0 -31.932 158.67 617.88)" gradientUnits="userSpaceOnUse">
            <stop stop-color="#00416b" offset="0" />
            <stop stop-color="#002447" offset="1" />
        </linearGradient>
        <linearGradient id="c" x2="1" gradientTransform="matrix(-45.266 -35.365 -35.365 45.266 171.29 607.84)" gradientUnits="userSpaceOnUse">
            <stop stop-color="#fd0" offset="0" />
            <stop stop-color="#d09910" offset=".89999" />
            <stop stop-color="#fd0" offset="1" />
        </linearGradient>
        <linearGradient id="d" x2="1" gradientTransform="matrix(-31.921 0 0 31.921 171.5 572.21)" gradientUnits="userSpaceOnUse">
            <stop stop-color="#d09910" offset="0" />
            <stop stop-color="#a65718" offset="1" />
        </linearGradient>
    </defs>
    <g transform="matrix(1.25 0 0 -1.25 -1052 1336.5)">
        <g clip-path="url(#h)">
            <g clip-path="url(#g)">
                <path d="m866.28 72.697 41.241-72.697h254.69v72.697h-295.93z" fill="url(#e)" />
            </g>
        </g>
        <g transform="matrix(2.4011 0 0 2.4011 556.23 -442.16)">
            <path d="m140.56 566.93c-0.517-0.643-0.82-1.465-0.82-2.353 0-2.087 1.691-3.787 3.798-3.787h27.506l-17.623 22.84-12.861-16.7z" fill="url(#d)" />
        </g>
        <g transform="matrix(2.4011 0 0 2.4011 556.23 -442.16)">
            <path d="m139.79 606.46c-2.585 0-4.872-1.226-6.322-3.13l-13.878-18.026c-0.364-0.466-0.588-1.04-0.588-1.675 0-0.626 0.199-1.192 0.563-1.665l13.886-18.012 0.092-0.126c1.427-1.81 3.618-2.987 6.096-3.037h0.095 1.639 2.166c-2.107 0-3.798 1.7-3.798 3.787 0 0.888 0.303 1.71 0.82 2.353l12.861 16.7 17.623 22.831h-31.255z" fill="url(#c)" />
        </g>
        <g transform="matrix(2.4011 0 0 2.4011 556.23 -442.16)">
            <path d="m159.13 629.29 17.631-22.83 12.87 16.675c0.497 0.66 0.814 1.473 0.814 2.359 0 2.097-1.702 3.796-3.8 3.796h-27.515z" fill="url(#b)" />
        </g>
        <g transform="matrix(2.4011 0 0 2.4011 556.23 -442.16)">
            <path d="m188.82 629.29h-2.174c2.098 0 3.8-1.699 3.8-3.796 0-0.886-0.317-1.699-0.814-2.359l-12.87-16.675-17.631-22.831h31.253c2.579 0 4.88 1.219 6.341 3.112l13.867 18.027c0.366 0.466 0.586 1.049 0.586 1.684 0 0.627-0.213 1.192-0.554 1.64l-13.883 18.027-0.09 0.137c-1.438 1.8-3.638 2.976-6.098 3.026-0.045 8e-3 -0.076 8e-3 -0.107 8e-3h-1.626z" fill="url(#a)" />
        </g>
        <g transform="matrix(2.4011 0 0 2.4011 556.23 -442.16)">
            <g clip-path="url(#f)">
                <g transform="translate(190.6 623.14)">
                    <path d="m0 0c0.518 0.661 0.817 1.473 0.817 2.36 0 2.097-1.692 3.795-3.791 3.795h-0.982c2.098 0 3.8-1.698 3.8-3.795 0-0.887-0.317-1.699-0.814-2.36l-12.87-16.675-17.631-22.831 31.471 39.506z" fill="#00c0f3" />
                </g>
                <g transform="translate(139.58 566.93)">
                    <path d="m0 0c-0.499-0.643-0.813-1.464-0.813-2.353 0-2.086 1.706-3.787 3.79-3.787h0.99c-2.107 0-3.798 1.701-3.798 3.787 0 0.889 0.304 1.71 0.82 2.353l12.861 16.7 17.623 22.831-31.473-39.531z" fill="#ffd400" />
                </g>
                <g transform="translate(445.32 582.07)">
                    <path d="m0 0c-1.297 0.575-2.938 0.965-4.729 1.403-2.646 0.66-5.099 0.805-6.013 2.226-0.85 1.319-0.381 2.866 0.752 3.652 2.603 1.783 6.138 1.073 8.094 0.167 0.328-0.143 1.781-0.979 1.781-0.979 0.195-0.125 0.437-0.203 0.697-0.203 0.465 0 0.852 0.22 1.098 0.558 0.019 0.042 3.705 4.829 3.705 4.829l-0.621 0.491c-0.358 0.262-0.868 0.625-1.41 0.938-1.108 0.625-4.473 2.563-9.362 2.563h-0.43c-10.722-0.255-12.203-7.83-12.203-10.503 0-4.061 2.088-6.977 5.235-8.786 2.51-1.455 7.273-2.239 9.701-2.976 1.26-0.379 2.187-1.253 2.535-2.106 0.162-0.371 0.248-0.77 0.26-1.192 0.045-1.387-0.707-3.002-2.789-3.654-2.309-0.7-5.951-0.407-9.25 2.183-0.094 0.076-0.465 0.364-0.59 0.412-0.162 0.062-0.316 0.085-0.504 0.085-0.471 0-0.84-0.246-1.103-0.607-0.053-0.068-3.67-4.721-3.67-4.721s1.275-1.054 1.697-1.376c2.08-1.565 5.81-3.679 10.709-3.679h0.187c10.303 0.035 12.756 7.348 12.756 11.382 0 4.1-2.51 8.084-6.533 9.893" fill="#00416b" />
                </g>
                <g transform="translate(330.17 597.13)">
                    <path d="m0 0c-1.768-0.025-3.246-0.245-4.736-0.684-2.373-0.743-4.186-2.046-5.569-3.863-2.283-3.028-2.259-6.621-2.259-6.621v-25.099h6.712c0.424 0 0.78 0.355 0.78 0.78v23.861c0 0.481 0.072 2.114 1 2.969 0.74 0.667 1.738 0.989 2.715 1.133 1.087 0.16 2.097 0.084 2.601 0.016 0 0 0.102-0.016 0.17-0.016 0.488 0 0.91 0.272 1.149 0.66l3.433 5.91c-1.912 0.667-3.822 0.981-5.996 0.954" fill="#00416b" />
                </g>
                <g transform="translate(310.33 597.13)">
                    <path d="m0 0c-1.77-0.025-3.266-0.245-4.73-0.684-2.393-0.743-4.192-2.046-5.584-3.863-2.29-3.028-2.247-6.621-2.247-6.621v-25.099h6.706c0.416 0 0.773 0.355 0.773 0.78v23.861c0 0.481 0.061 2.114 1.004 2.969 0.736 0.667 1.742 0.989 2.721 1.133 1.091 0.16 2.08 0.084 2.587 0.016 0 0 0.12-0.016 0.17-0.016 0.493 0 0.922 0.272 1.159 0.66l3.433 5.91c-1.92 0.667-3.83 0.981-5.992 0.954" fill="#00416b" />
                </g>
                <g transform="translate(251.26 570.16)">
                    <path d="m0 0c-0.254 0.329-0.65 0.54-1.109 0.54-0.262 0-0.506-0.067-0.7-0.193l-0.035-9e-3c-2.281-1.378-4.963-2.157-7.83-2.157-8.414 0-15.262 6.85-15.262 15.271 0 8.414 6.848 15.272 15.262 15.272 2.867 0 5.539-0.796 7.822-2.147 0.213-0.153 0.475-0.22 0.743-0.22 0.441 0 0.847 0.22 1.101 0.523l3.811 4.964c-3.778 2.782-8.432 4.415-13.477 4.415-12.572 0-22.805-10.233-22.805-22.807 0-12.582 10.233-22.822 22.805-22.822 5.045 0 9.699 1.641 13.496 4.414l-3.822 4.956z" fill="#00416b" />
                </g>
                <g transform="translate(353.53 590.45)">
                    <path d="m0 0c4.955 0 9.143-3.215 10.629-7.672h-21.24c1.478 4.457 5.683 7.672 10.611 7.672m0 7.211c-10.143 0-18.408-8.251-18.408-18.407 0-10.055 8.269-18.305 18.426-18.418h0.541c4.017 0 7.214 0.542 11.462 3.299l0.688 0.446s-3.775 4.89-3.813 4.95c-0.251 0.328-0.64 0.522-1.08 0.522-0.252 0-0.484-0.059-0.677-0.175-0.951-0.501-3.91-1.828-7.139-1.828-4.854-0.01-8.99 3.112-10.545 7.439h25.207l2.91 0.019c0.436 0 0.791 0.345 0.791 0.768l0.041 2.158c0.01 0.271 0.03 0.547 0.03 0.82 0 10.156-8.268 18.407-18.434 18.407" fill="#00416b" />
                </g>
                <g transform="translate(377.03 560.79)">
                    <path d="m0 0c-0.428 0-0.779 0.338-0.783 0.754v34.153c4e-3 0.406 0.336 0.752 0.748 0.768h5.953c0.432 0 0.787-0.344 0.787-0.778v-34.126c0-0.424-0.355-0.771-0.787-0.771h-5.918z" fill="#00416b" />
                </g>
                <g transform="translate(274.93 590.55)">
                    <path d="m0 0c-6.121 0-11.111-4.989-11.111-11.109 0-6.14 4.99-11.115 11.111-11.115 6.139 0 11.123 4.975 11.123 11.115 0 6.12-4.984 11.109-11.123 11.109m0-29.757c-10.277 0-18.639 8.364-18.639 18.648 0 10.273 8.362 18.627 18.639 18.627 10.285 0 18.641-8.354 18.641-18.627 0-10.284-8.356-18.648-18.641-18.648" fill="#00416b" />
                </g>
                <g transform="translate(405.9 590.27)">
                    <path d="m0 0c-6.07 0-11-4.928-11-10.991 0-6.062 4.93-11.001 11-11.001 6.064 0 10.996 4.939 10.996 11.001 0 6.063-4.932 10.991-10.996 10.991m0-29.434c-10.17 0-18.439 8.28-18.439 18.443 0 10.174 8.269 18.442 18.439 18.442s18.447-8.268 18.447-18.442c0-10.163-8.277-18.443-18.447-18.443" fill="#00416b" />
                </g>
            </g>
        </g>
    </g>
</svg>
