<svg xmlns="http://www.w3.org/2000/svg" width="102" height="35" fill="none">
    <path fill="#212323" d="M44.426 25.769c-.119-.212-.22-.526-.314-.95-.602.763-1.451 1.145-2.537 1.145-.993 0-1.842-.297-2.538-.899-.695-.602-1.044-1.356-1.044-2.263 0-1.144.425-2.009 1.265-2.594.849-.585 2.07-.873 3.692-.873h1.018v-.56c0-.974-.416-1.457-1.256-1.457-.78 0-1.171.381-1.171 1.152h-3.284c0-1.017.432-1.848 1.298-2.483.866-.636 1.977-.958 3.318-.958 1.35 0 2.41.33 3.191.983.78.653 1.18 1.56 1.197 2.696v4.67c.017.967.16 1.713.45 2.221v.17h-3.285Zm-2.062-2.145c.407 0 .747-.085 1.018-.263.272-.178.467-.373.578-.593v-1.687H43c-1.145 0-1.714.517-1.714 1.543 0 .297.102.543.306.729.203.178.458.271.772.271ZM55.009 22.802c0-.28-.145-.5-.442-.67-.288-.17-.848-.347-1.671-.525-.824-.178-1.494-.424-2.029-.72-.534-.297-.942-.654-1.222-1.077a2.566 2.566 0 0 1-.416-1.45c0-.966.4-1.763 1.197-2.39.798-.628 1.85-.941 3.14-.941 1.392 0 2.512.313 3.352.95.849.627 1.265 1.457 1.265 2.483H54.88c0-.848-.45-1.263-1.332-1.263-.348 0-.636.093-.866.288a.886.886 0 0 0-.347.72c0 .289.144.526.432.713.289.178.747.33 1.375.449s1.18.254 1.655.415c1.587.543 2.376 1.526 2.376 2.933 0 .958-.424 1.746-1.281 2.348-.858.602-1.96.907-3.319.907-.907 0-1.714-.16-2.418-.483-.713-.322-1.265-.763-1.655-1.322-.399-.56-.594-1.145-.594-1.763h3.072c.017.483.178.839.484 1.068.314.22.713.339 1.196.339.45 0 .781-.094 1.01-.272.23-.203.34-.44.34-.737ZM63.945 12.596v2.62h1.74v2.28h-1.74v4.823c0 .398.068.67.212.83.144.153.424.238.849.238.322 0 .602-.017.823-.06v2.349a6.153 6.153 0 0 1-1.85.28c-1.129 0-1.97-.263-2.504-.797-.543-.534-.806-1.34-.806-2.425v-5.23h-1.35v-2.28h1.35v-2.62h3.276v-.008ZM34.98 10.791v11.537c0 .398.069.67.213.83.144.153.424.238.849.238.322 0 .602-.017.823-.06v2.34a6.157 6.157 0 0 1-1.85.28c-1.129 0-1.969-.263-2.504-.797-.543-.534-.806-1.34-.806-2.424V10.79h3.276ZM70.827 10.79v11.537c0 .399.068.67.212.831.145.153.425.237.85.237.322 0 .602-.017.822-.059v2.34a6.154 6.154 0 0 1-1.85.28c-1.129 0-1.969-.263-2.503-.797-.543-.534-.806-1.34-.806-2.425V10.791h3.275ZM73.662 12.503c0-.466.17-.848.509-1.153.34-.296.78-.449 1.315-.449.543 0 .976.152 1.316.45.34.296.509.686.509 1.152 0 .466-.17.848-.51 1.153-.339.297-.78.45-1.315.45-.543 0-.976-.153-1.315-.45a1.48 1.48 0 0 1-.51-1.153Zm3.496 13.266h-3.301V15.224h3.301V25.77ZM82.598 15.224l.11 1.237c.73-.957 1.731-1.432 3.013-1.432 1.103 0 1.918.33 2.46.983.544.653.824 1.645.841 2.959v6.79h-3.301v-6.655c0-.534-.11-.924-.323-1.178-.212-.246-.602-.373-1.17-.373-.646 0-1.12.254-1.435.763v7.442h-3.276V15.224h3.08ZM95.489 21.836l-.925.924v3H91.28V10.79h3.284v7.952l.33-.441 2.479-3.077h3.937l-3.7 4.34 3.938 6.205H97.78l-2.291-3.933Z" />
    <path fill="#34E23C" d="M21.08 24.65c-.908 0-1.765.237-2.512.653l-2.75-2.314-.245.288a9.635 9.635 0 0 1-1.757 2.085l-.459.543 2.784 2.34A5.178 5.178 0 0 0 21.071 35a5.178 5.178 0 0 0 5.177-5.172 5.172 5.172 0 0 0-5.168-5.179Zm0 6.544a1.374 1.374 0 1 1-.002-2.747 1.374 1.374 0 0 1 .002 2.747ZM14.605 15.699l5.542-5.468c.61.263 1.29.416 2.002.416 2.8 0 5.084-2.28 5.084-5.078A5.093 5.093 0 0 0 22.149.5c-2.8 0-5.083 2.28-5.083 5.078 0 .695.144 1.356.399 1.958l-5.083 5.01a7.478 7.478 0 0 0-4.838-1.764C3.386 10.782 0 14.164 0 18.318c0 4.153 3.386 7.536 7.544 7.536 4.159 0 7.545-3.383 7.545-7.536a7.51 7.51 0 0 0-.484-2.62ZM22.15 4.306a1.27 1.27 0 1 1 0 2.543 1.27 1.27 0 1 1 0-2.543ZM7.544 22.048a3.732 3.732 0 0 1-3.734-3.73c0-2.06 1.672-3.73 3.734-3.73a3.732 3.732 0 0 1 3.734 3.73c0 2.06-1.68 3.73-3.734 3.73Z" />
</svg>
