<svg width="145" height="41" viewBox="0 0 131 44" fill="none" xmlns="http://www.w3.org/2000/svg"><path d="M53.468 7.847h-4.745v24.99H63.81V28.25H53.47V7.847ZM73.844 14.342c-5.446 0-9.611 4.046-9.611 9.373 0 5.328 4.147 9.395 9.611 9.391 5.464-.003 9.611-4.028 9.611-9.373s-4.086-9.37-9.59-9.391h-.02Zm-.025 14.552c-2.915 0-4.983-2.197-4.951-5.221.032-3.024 2.082-5.093 5.001-5.09 2.919.004 4.984 2.13 4.959 5.175-.025 3.045-2.08 5.157-5.012 5.136M98.908 15.616a10.083 10.083 0 0 0-4.955-1.277c-5.446-.022-9.611 4.046-9.611 9.37 0 5.323 4.15 9.398 9.611 9.394a10.026 10.026 0 0 0 4.984-1.288v2.027c0 3.041-2.08 5.153-5.013 5.153-3.766 0-5.425-3.642-5.425-3.642l-3.449 2.091s1.983 5.775 8.9 5.775c5.481 0 9.611-4.029 9.611-9.377V14.32h-4.628v1.295h-.025Zm.025 8.185c-.04 3.01-2.093 5.104-5.009 5.082-2.915-.021-4.983-2.2-4.948-5.22.036-3.021 2.08-5.094 5.002-5.094 2.922 0 4.94 2.094 4.955 5.111v.117M119.017 15.616a10.076 10.076 0 0 0-4.955-1.277c-5.446-.022-9.611 4.046-9.611 9.37 0 5.323 4.147 9.398 9.611 9.394a10.034 10.034 0 0 0 4.983-1.288v2.027c0 3.041-2.082 5.153-5.015 5.153-3.766 0-5.422-3.642-5.422-3.642l-3.452 2.091s1.982 5.771 8.899 5.771c5.482 0 9.611-4.025 9.611-9.373V14.32h-4.628v1.295h-.021Zm.021 8.185c-.039 3.01-2.093 5.104-5.008 5.082-2.916-.021-4.984-2.2-4.948-5.22.035-3.021 2.079-5.097 4.983-5.094 2.905.004 4.941 2.094 4.959 5.111v.12M130.266 14.328h-4.745v18.509h4.745v-18.51ZM127.895 12.542a2.366 2.366 0 0 0 .463-4.69 2.381 2.381 0 0 0-2.437 1.008 2.361 2.361 0 0 0 .295 2.989 2.377 2.377 0 0 0 1.679.693ZM39.087 11.378a27.453 27.453 0 0 0-2.773-1.217l-.263-.192s-6.283-4.479-9.053-5.643C24.23 3.162 19.413.635 14.54.776A29.66 29.66 0 0 0 7.46 1.8c-.987.238-1.649.515-.567 1.022.356.17 1.908 1.086 3.78 2.154 2.742 1.559 6.184 3.44 7.683 3.78 2.228.532 4.515.782 6.806.742 3.442-.07 5.115 1.392 5.453 1.927-.616-.873-2.958-1.572-6.087-1.38-3.011.184-5.432 0-6.838-.433A61.634 61.634 0 0 1 9.48 6.416c-.693.206-1.374.45-2.04.732-.864.355-1.68 1.025-.462 1.37.872.244 9.013 3.148 11.39 3.286 2.1.149 4.208.03 6.277-.355 3.079-.578 4.684.682 5.058 1.171a7.742 7.742 0 0 0-1.424 5.033c-11.256-1.98-14.848-3.002-17.39-3.439C6.446 13.451.804 17.206.11 21.852c-.392 2.644.284 5.11 1.893 7.393 1.78 2.527 4.126 4.706 4.468 5.168.217.397.146 1.44.16 2.13 0 .79 1.01 1.497 1.591 1.55.356.032 7.01 2.108 7.01 2.108l9.87 3.028s.153-.678.182-.965c.075-.728-.48-2.527-2.795-3.195-3.403-1.022-4.075-1.214-4.798-1.42-.392-.117-.118-.124.488-.6a9.719 9.719 0 0 0 2.367-3.005c2.015-4.26-.52-8.078-.52-8.078a9.98 9.98 0 0 1 2.175 4.557c.744 3.62-1.716 6.491-1.716 6.491l1.467.426s9.486-9.526 10.412-10.555c.783-.87 2.136-1.42 2.848-1.64 2.527-.731 5.695-2.13 6.496-2.655.801-.525 1.78-2.3 2.04-2.743a4.41 4.41 0 0 0 .633-1.686c.022-.23-1.33-2.03-1.33-2.03s-2.161-3.649-3.945-4.728M11.478 40.73a.956.956 0 0 0 .068 1.694c.712.38 3.16-.952 3.16-.952l-2.441-.766a1.039 1.039 0 0 0-.78.024" fill="#00BAFF"/></svg>