<svg width="200" height="52" viewBox="0 0 200 52" fill="none" xmlns="http://www.w3.org/2000/svg">
<path d="M95.5489 39.9111H90.7642C90.2174 39.9111 89.8073 39.501 89.8073 38.9542V12.5701C89.8073 12.0232 90.2174 11.6131 90.7642 11.6131H95.5489C96.0957 11.6131 96.5058 12.0232 96.5058 12.5701V38.9542C96.6425 39.501 96.0957 39.9111 95.5489 39.9111Z" fill="#312044"/>
<path d="M133.28 32.3924C133.826 32.6658 133.963 33.3493 133.69 33.7594C133.69 33.7594 133.69 33.8961 133.553 33.8961C130.682 37.9973 125.897 40.458 120.976 40.3213C112.774 40.5947 105.938 34.3062 105.665 26.1039C105.665 25.8305 105.665 25.6938 105.665 25.4204C105.665 17.0813 112.09 10.9296 120.976 10.9296C125.897 10.7929 130.682 13.1169 133.69 17.0813C134.1 17.4915 133.963 18.175 133.553 18.4484C133.553 18.4484 133.416 18.4484 133.416 18.5851L129.452 20.9091C129.042 21.1825 128.358 21.0458 128.085 20.6357C125.214 16.8079 119.882 15.9877 116.055 18.8585C114.004 20.3623 112.637 22.823 112.637 25.5571C112.637 30.2051 116.328 34.0328 120.839 34.0328H120.976C123.71 34.1695 126.444 32.8025 127.948 30.4785C128.221 30.0684 128.768 29.9317 129.315 30.2051L133.28 32.3924Z" fill="#312044"/>
<path d="M165.132 17.9016H157.203C156.656 17.9016 156.246 18.3117 156.246 18.8585V38.8175C156.246 39.3643 155.836 39.7745 155.289 39.7745H150.368C149.821 39.7745 149.411 39.3643 149.411 38.8175V18.8585C149.411 18.3117 149.001 17.9016 148.454 17.9016H140.525C139.978 17.9016 139.568 17.4915 139.568 16.9447V12.7068C139.568 12.16 139.978 11.7498 140.525 11.7498H165.542C166.089 11.7498 166.499 12.16 166.499 12.7068V16.9447C166.089 17.3548 165.679 17.9016 165.132 17.9016Z" fill="#312044"/>
<path d="M79.0075 17.9016H71.0786C70.5318 17.9016 70.1217 18.3117 70.1217 18.8585V38.8175C70.1217 39.3643 69.7115 39.7745 69.1647 39.7745H64.1066C63.5598 39.7745 63.1497 39.3643 63.1497 38.8175V18.8585C63.1497 18.3117 62.7396 17.9016 62.1928 17.9016H54.1271C53.5803 17.9016 53.1702 17.4915 53.1702 16.9447V12.7068C53.1702 12.16 53.5803 11.7498 54.1271 11.7498H79.1442C79.691 11.7498 80.1012 12.16 80.1012 12.7068V16.9447C80.1012 17.3548 79.5543 17.7649 79.0075 17.9016Z" fill="#312044"/>
<path d="M199.992 25.6938C199.992 33.7594 193.43 40.3213 185.364 40.3213C177.299 40.3213 170.6 33.7594 170.6 25.6938C170.6 17.6282 177.162 11.0663 185.228 11.0663C193.293 11.0663 199.992 17.6282 199.992 25.6938ZM176.889 25.6938C176.889 30.3418 180.58 34.0328 185.228 34.0328C189.876 34.0328 193.567 30.3418 193.567 25.6938C193.567 21.0458 189.876 17.3548 185.228 17.3548C180.58 17.3548 176.889 21.0458 176.889 25.6938Z" fill="#312044"/>
<path d="M41.5584 7.10867H32.6726C32.1258 7.10867 31.7157 7.24538 31.3055 7.38208L23.7867 10.1162C23.1032 10.3896 22.283 10.5263 21.4627 10.5263C20.6425 10.5263 19.959 10.3896 19.1388 10.1162L11.62 7.38208C11.2098 7.24538 10.663 7.10867 10.2529 7.10867H0L2.73411 12.0301C3.28093 12.987 4.10116 13.6705 5.0581 13.9439L12.5769 16.6781C15.311 17.635 17.2249 20.3691 17.2249 23.2399V36.9104L21.4627 44.1558L23.65 40.4648L25.7006 36.9104V23.2399C25.7006 20.2324 27.4778 17.635 30.3486 16.6781L35.9535 14.6275L37.8674 13.9439L38.4142 13.6705C39.0977 13.2604 39.6446 12.7136 40.0547 12.0301L42.9255 7.10867H41.5584ZM38.961 11.62C38.5509 12.3035 38.0041 12.7136 37.3206 12.987L29.8018 15.7211C26.6576 16.9515 24.4703 19.959 24.4703 23.2399V36.637L21.326 42.1053V15.311L41.1483 7.7922L38.961 11.62Z" fill="#312044"/>
</svg>
